<svg width="15" height="15" viewBox="0 0 15 15" fill="none" xmlns="http://www.w3.org/2000/svg">
<path d="M3.31734 13.4392C3.00161 13.4392 2.73438 13.3298 2.51562 13.1111C2.29687 12.8923 2.1875 12.6251 2.1875 12.3094V3.94406C2.1875 3.62833 2.29687 3.36109 2.51562 3.14234C2.73438 2.92359 3.00161 2.81422 3.31734 2.81422H4.18266V1.49219H5.14422V2.81422H9.87984V1.49219H10.8173V2.81422H11.6827C11.9984 2.81422 12.2656 2.92359 12.4844 3.14234C12.7031 3.36109 12.8125 3.62833 12.8125 3.94406V12.3094C12.8125 12.6251 12.7031 12.8923 12.4844 13.1111C12.2656 13.3298 11.9984 13.4392 11.6827 13.4392H3.31734ZM3.31734 12.5017H11.6827C11.7308 12.5017 11.7748 12.4817 11.8148 12.4416C11.8549 12.4016 11.875 12.3575 11.875 12.3094V6.44406H3.125V12.3094C3.125 12.3575 3.14505 12.4016 3.18516 12.4416C3.22516 12.4817 3.26922 12.5017 3.31734 12.5017ZM3.125 5.50656H11.875V3.94406C11.875 3.89594 11.8549 3.85187 11.8148 3.81187C11.7748 3.77177 11.7308 3.75172 11.6827 3.75172H3.31734C3.26922 3.75172 3.22516 3.77177 3.18516 3.81187C3.14505 3.85187 3.125 3.89594 3.125 3.94406V5.50656ZM7.5 8.79984C7.34698 8.79984 7.21656 8.74594 7.10875 8.63812C7.00104 8.53042 6.94719 8.4 6.94719 8.24687C6.94719 8.09385 7.00104 7.96344 7.10875 7.85562C7.21656 7.74792 7.34698 7.69406 7.5 7.69406C7.65302 7.69406 7.78344 7.74792 7.89125 7.85562C7.99896 7.96344 8.05281 8.09385 8.05281 8.24687C8.05281 8.4 7.99896 8.53042 7.89125 8.63812C7.78344 8.74594 7.65302 8.79984 7.5 8.79984ZM5 8.79984C4.84698 8.79984 4.71656 8.74594 4.60875 8.63812C4.50104 8.53042 4.44719 8.4 4.44719 8.24687C4.44719 8.09385 4.50104 7.96344 4.60875 7.85562C4.71656 7.74792 4.84698 7.69406 5 7.69406C5.15302 7.69406 5.28344 7.74792 5.39125 7.85562C5.49896 7.96344 5.55281 8.09385 5.55281 8.24687C5.55281 8.4 5.49896 8.53042 5.39125 8.63812C5.28344 8.74594 5.15302 8.79984 5 8.79984ZM10 8.79984C9.84698 8.79984 9.71656 8.74594 9.60875 8.63812C9.50104 8.53042 9.44719 8.4 9.44719 8.24687C9.44719 8.09385 9.50104 7.96344 9.60875 7.85562C9.71656 7.74792 9.84698 7.69406 10 7.69406C10.153 7.69406 10.2834 7.74792 10.3912 7.85562C10.499 7.96344 10.5528 8.09385 10.5528 8.24687C10.5528 8.4 10.499 8.53042 10.3912 8.63812C10.2834 8.74594 10.153 8.79984 10 8.79984ZM7.5 11.2517C7.34698 11.2517 7.21656 11.1978 7.10875 11.09C7.00104 10.9823 6.94719 10.8519 6.94719 10.6989C6.94719 10.5458 7.00104 10.4154 7.10875 10.3077C7.21656 10.1998 7.34698 10.1459 7.5 10.1459C7.65302 10.1459 7.78344 10.1998 7.89125 10.3077C7.99896 10.4154 8.05281 10.5458 8.05281 10.6989C8.05281 10.8519 7.99896 10.9823 7.89125 11.09C7.78344 11.1978 7.65302 11.2517 7.5 11.2517ZM5 11.2517C4.84698 11.2517 4.71656 11.1978 4.60875 11.09C4.50104 10.9823 4.44719 10.8519 4.44719 10.6989C4.44719 10.5458 4.50104 10.4154 4.60875 10.3077C4.71656 10.1998 4.84698 10.1459 5 10.1459C5.15302 10.1459 5.28344 10.1998 5.39125 10.3077C5.49896 10.4154 5.55281 10.5458 5.55281 10.6989C5.55281 10.8519 5.49896 10.9823 5.39125 11.09C5.28344 11.1978 5.15302 11.2517 5 11.2517ZM10 11.2517C9.84698 11.2517 9.71656 11.1978 9.60875 11.09C9.50104 10.9823 9.44719 10.8519 9.44719 10.6989C9.44719 10.5458 9.50104 10.4154 9.60875 10.3077C9.71656 10.1998 9.84698 10.1459 10 10.1459C10.153 10.1459 10.2834 10.1998 10.3912 10.3077C10.499 10.4154 10.5528 10.5458 10.5528 10.6989C10.5528 10.8519 10.499 10.9823 10.3912 11.09C10.2834 11.1978 10.153 11.2517 10 11.2517Z" fill="#ACB5BB"/>
</svg>
