<svg width="40" height="40" viewBox="0 0 40 40" fill="none" xmlns="http://www.w3.org/2000/svg">
<path d="M7.46272 18.9165C9.63711 18.9165 11.3998 17.5064 11.3998 15.7669C11.3998 14.0273 9.63711 12.6172 7.46272 12.6172C5.28833 12.6172 3.52563 14.0273 3.52563 15.7669C3.52563 17.5064 5.28833 18.9165 7.46272 18.9165Z" fill="#F6EDD4"/>
<path d="M9.2403 16.0376C11.4147 16.0376 13.1774 14.6275 13.1774 12.8879C13.1774 11.1484 11.4147 9.73828 9.2403 9.73828C7.06591 9.73828 5.30322 11.1484 5.30322 12.8879C5.30322 14.6275 7.06591 16.0376 9.2403 16.0376Z" fill="#F6EDD4"/>
<path d="M13.8676 19.186C16.042 19.186 17.8047 17.7759 17.8047 16.0364C17.8047 14.2969 16.042 12.8867 13.8676 12.8867C11.6932 12.8867 9.93054 14.2969 9.93054 16.0364C9.93054 17.7759 11.6932 19.186 13.8676 19.186Z" fill="#F6EDD4"/>
<path d="M12.0187 12.8872C14.1931 12.8872 15.9558 11.4771 15.9558 9.73756C15.9558 7.99804 14.1931 6.58789 12.0187 6.58789C9.8443 6.58789 8.0816 7.99804 8.0816 9.73756C8.0816 11.4771 9.8443 12.8872 12.0187 12.8872Z" fill="#F6EDD4"/>
<path d="M19.9418 19.186C22.1162 19.186 23.8789 17.7759 23.8789 16.0364C23.8789 14.2969 22.1162 12.8867 19.9418 12.8867C17.7674 12.8867 16.0047 14.2969 16.0047 16.0364C16.0047 17.7759 17.7674 19.186 19.9418 19.186Z" fill="#F6EDD4"/>
<path d="M22.6485 12.2564C24.8229 12.2564 26.5856 10.8462 26.5856 9.1067C26.5856 7.36718 24.8229 5.95703 22.6485 5.95703C20.4741 5.95703 18.7114 7.36718 18.7114 9.1067C18.7114 10.8462 20.4741 12.2564 22.6485 12.2564Z" fill="#F6EDD4"/>
<path d="M17.1929 12.2564C19.3673 12.2564 21.13 10.8462 21.13 9.1067C21.13 7.36718 19.3673 5.95703 17.1929 5.95703C15.0185 5.95703 13.2558 7.36718 13.2558 9.1067C13.2558 10.8462 15.0185 12.2564 17.1929 12.2564Z" fill="#F6EDD4"/>
<path d="M18.7114 15.4068C20.8858 15.4068 22.6485 13.9966 22.6485 12.2571C22.6485 10.5176 20.8858 9.10742 18.7114 9.10742C16.537 9.10742 14.7744 10.5176 14.7744 12.2571C14.7744 13.9966 16.537 15.4068 18.7114 15.4068Z" fill="#F6EDD4"/>
<path d="M14.7747 16.0357C16.9491 16.0357 18.7118 14.6255 18.7118 12.886C18.7118 11.1465 16.9491 9.73633 14.7747 9.73633C12.6003 9.73633 10.8376 11.1465 10.8376 12.886C10.8376 14.6255 12.6003 16.0357 14.7747 16.0357Z" fill="#F6EDD4"/>
<path d="M26.3041 17.6568C28.4785 17.6568 30.2412 16.2466 30.2412 14.5071C30.2412 12.7676 28.4785 11.3574 26.3041 11.3574C24.1298 11.3574 22.3671 12.7676 22.3671 14.5071C22.3671 16.2466 24.1298 17.6568 26.3041 17.6568Z" fill="#F6EDD4"/>
<path d="M30.6349 19.3657C32.8093 19.3657 34.572 17.9556 34.572 16.2161C34.572 14.4766 32.8093 13.0664 30.6349 13.0664C28.4605 13.0664 26.6978 14.4766 26.6978 16.2161C26.6978 17.9556 28.4605 19.3657 30.6349 19.3657Z" fill="#F6EDD4"/>
<path d="M31.9049 18.1978C34.0793 18.1978 35.842 16.7876 35.842 15.0481C35.842 13.3086 34.0793 11.8984 31.9049 11.8984C29.7305 11.8984 27.9678 13.3086 27.9678 15.0481C27.9678 16.7876 29.7305 18.1978 31.9049 18.1978Z" fill="#F6EDD4"/>
<path d="M26.1301 20.6275C28.3045 20.6275 30.0672 19.2173 30.0672 17.4778C30.0672 15.7383 28.3045 14.3281 26.1301 14.3281C23.9557 14.3281 22.1931 15.7383 22.1931 17.4778C22.1931 19.2173 23.9557 20.6275 26.1301 20.6275Z" fill="#F6EDD4"/>
<path d="M35.0215 10.9979C35.0215 11.1174 35.0153 11.2369 34.9967 11.3563C34.9842 11.4609 34.9655 11.5655 34.9407 11.665C34.9345 11.6999 34.9282 11.7297 34.9158 11.7645C34.8909 11.8591 34.8598 11.9538 34.8224 12.0434C34.7789 12.1529 34.7291 12.2624 34.6731 12.367C34.6234 12.4716 34.5611 12.5711 34.4927 12.6706V12.6756H34.4865C34.1753 13.1385 33.7335 13.5369 33.2045 13.8356C32.4826 14.2586 31.599 14.5076 30.6344 14.5076C30.5038 14.5076 30.373 14.5026 30.2424 14.4877C29.7197 14.4579 29.2219 14.3483 28.7738 14.1741C28.5809 14.1044 28.4005 14.0247 28.2262 13.9302C28.1702 13.9053 28.1142 13.8755 28.0644 13.8356C27.8902 13.741 27.7284 13.6315 27.579 13.5169C26.8572 12.9544 26.378 12.2027 26.2722 11.3614C26.2535 11.2419 26.2474 11.1224 26.2474 10.9979C26.2474 10.9332 26.2474 10.8685 26.2598 10.8038C26.378 8.95683 28.2947 7.48828 30.6345 7.48828H30.6657L31.8044 7.61773C32.5698 7.78195 33.2482 8.11556 33.7771 8.55855C33.8144 8.58843 33.8518 8.6134 33.8828 8.64322C33.9139 8.66806 33.9388 8.688 33.9575 8.71291C33.9699 8.72284 33.9824 8.73782 33.9948 8.74775C34.1007 8.84235 34.1878 8.93695 34.2687 9.03645C34.331 9.10621 34.3869 9.17584 34.4367 9.25056C34.4616 9.28541 34.4865 9.32025 34.5114 9.35516C34.6359 9.54429 34.7416 9.74343 34.8225 9.95257C34.835 9.98741 34.8474 10.0222 34.8536 10.0571C34.8536 10.0571 34.8599 10.0571 34.8599 10.0621C34.891 10.1418 34.9159 10.2214 34.9345 10.306C34.9904 10.5299 35.0215 10.759 35.0215 10.9979Z" fill="#F6EDD4"/>
<path d="M30.6906 7.85151C30.6906 9.51429 29.2407 10.9082 27.2991 11.2666C26.9818 11.3313 26.6457 11.3612 26.3035 11.3612H26.2723C25.9985 11.3612 25.7309 11.3363 25.4758 11.2964C24.8535 11.2019 24.2811 11.0028 23.7894 10.724C23.2792 10.4402 22.8497 10.0718 22.5386 9.64367C22.4639 9.55404 22.4017 9.45944 22.3457 9.35993C22.0718 8.90185 21.9163 8.3891 21.9163 7.85151C21.9163 7.15454 22.1715 6.50732 22.6133 5.95972C22.9929 5.47686 23.5281 5.07355 24.1566 4.79479C24.7913 4.50615 25.5194 4.3418 26.3035 4.3418C28.0895 4.3418 29.6265 5.19306 30.3048 6.41775L30.6658 7.48815C30.6843 7.60759 30.6906 7.72704 30.6906 7.85151Z" fill="#F6EDD4"/>
<path d="M7.4634 15.2711C9.88626 15.2711 11.8504 13.6998 11.8504 11.7615C11.8504 9.82325 9.88626 8.25195 7.4634 8.25195C5.04054 8.25195 3.07642 9.82325 3.07642 11.7615C3.07642 13.6998 5.04054 15.2711 7.4634 15.2711Z" fill="#F6EDD4"/>
<path d="M9.93001 12.9762C12.3529 12.9762 14.317 11.4049 14.317 9.46662C14.317 7.52833 12.3529 5.95703 9.93001 5.95703C7.50715 5.95703 5.54303 7.52833 5.54303 9.46662C5.54303 11.4049 7.50715 12.9762 9.93001 12.9762Z" fill="#F6EDD4"/>
<path d="M14.3175 10.5973C16.7404 10.5973 18.7045 9.026 18.7045 7.08771C18.7045 5.14942 16.7404 3.57812 14.3175 3.57812C11.8947 3.57812 9.93054 5.14942 9.93054 7.08771C9.93054 9.026 11.8947 10.5973 14.3175 10.5973Z" fill="#F6EDD4"/>
<path d="M20.3917 10.0973C22.8145 10.0973 24.7787 8.526 24.7787 6.58771C24.7787 4.64942 22.8145 3.07812 20.3917 3.07812C17.9688 3.07812 16.0047 4.64942 16.0047 6.58771C16.0047 8.526 17.9688 10.0973 20.3917 10.0973Z" fill="#F6EDD4"/>
<path d="M24.8734 16.897C27.0478 16.897 28.8105 15.4868 28.8105 13.7473C28.8105 12.0078 27.0478 10.5977 24.8734 10.5977C22.699 10.5977 20.9363 12.0078 20.9363 13.7473C20.9363 15.4868 22.699 16.897 24.8734 16.897Z" fill="#F6EDD4"/>
<path d="M10.1316 34.1738H6.3979L5.8565 30.8931L4.64925 23.5153L3.52911 16.7148H8.08427L8.33319 18.8356L8.51984 20.4188L9.41598 28.0455L10.0694 33.6312L10.1316 34.1738Z" fill="#D14846"/>
<path d="M13.868 34.174H10.132L8.08319 16.7168H12.6387L13.868 34.174Z" fill="white"/>
<path d="M17.6041 34.174H13.8681L12.6389 16.7168H17.1943L17.6041 34.174Z" fill="#D14846"/>
<path d="M21.3387 34.174H17.6027L17.1929 16.7168H21.7485L21.3387 34.174Z" fill="white"/>
<path d="M25.0763 34.174H21.3403L21.75 16.7168H26.3055L25.0763 34.174Z" fill="#D14846"/>
<path d="M28.8117 34.174H25.0757L26.3049 16.7168H30.8605L28.8117 34.174Z" fill="white"/>
<path d="M32.5471 34.174H28.8111L30.8599 16.7168H35.4153L32.5471 34.174Z" fill="#D14846"/>
<path d="M32.5516 33.707H6.39679V35.6934H32.5516V33.707Z" fill="#F2F2F2"/>
<path opacity="0.3" d="M22.9127 7.77344C22.9127 7.38555 22.516 7.06825 22.0312 7.06825C21.768 7.06825 21.5337 7.16361 21.3718 7.31108C21.2298 7.07296 20.9281 6.90625 20.578 6.90625C20.337 6.90625 20.118 6.98486 19.9585 7.11131C19.7989 6.98486 19.58 6.90625 19.3391 6.90625C18.8542 6.90625 18.4575 7.22362 18.4575 7.61144C18.4575 7.95034 18.7603 8.23522 19.1602 8.30185C19.1416 8.35874 19.1286 8.41728 19.1286 8.47863C19.1286 8.86652 19.5253 9.18382 20.0101 9.18382C20.2473 9.18382 20.4624 9.10712 20.6213 8.98418C20.707 9.0066 20.7968 9.02189 20.8916 9.02189C20.8967 9.02189 20.9015 9.02074 20.9066 9.02068C21.0672 9.19752 21.3257 9.31416 21.6182 9.31416C22.1031 9.31416 22.4998 8.99685 22.4998 8.60897C22.4998 8.53182 22.4802 8.45875 22.4513 8.38913C22.7244 8.26892 22.9127 8.03914 22.9127 7.77344Z" fill="#E4AC23"/>
<path opacity="0.3" d="M27.3195 13.4985C27.5389 13.8639 28.0921 14.0193 28.5488 13.8438C28.7967 13.7485 28.9636 13.5739 29.0328 13.3763C29.3012 13.5492 29.6797 13.597 30.0096 13.4703C30.2366 13.3831 30.3984 13.2298 30.4771 13.053C30.699 13.1143 30.9497 13.1091 31.1767 13.0219C31.6334 12.8464 31.8276 12.4039 31.6083 12.0385C31.4167 11.7192 30.9702 11.5605 30.5558 11.6424C30.5412 11.5821 30.5204 11.5222 30.4857 11.4644C30.2663 11.099 29.7131 10.9436 29.2563 11.1191C29.033 11.2049 28.8736 11.3551 28.7935 11.5284C28.7 11.5384 28.6068 11.5564 28.5175 11.5908C28.5127 11.5926 28.5088 11.5954 28.504 11.5973C28.2527 11.4889 27.9431 11.4726 27.6676 11.5785C27.2108 11.754 27.0166 12.1965 27.2359 12.5619C27.2796 12.6346 27.3393 12.6963 27.4059 12.7515C27.2167 12.9635 27.1693 13.2481 27.3195 13.4985Z" fill="#E4AC23"/>
<path opacity="0.3" d="M9.00967 11.7435C8.73957 12.1237 8.90743 12.6115 9.38265 12.8276C9.64057 12.9449 9.93671 12.9559 10.1981 12.8834C10.1715 13.1801 10.3511 13.478 10.6943 13.6341C10.9305 13.7415 11.1999 13.762 11.4442 13.7091C11.5126 13.9042 11.6724 14.0788 11.9086 14.1862C12.3838 14.4022 12.9937 14.268 13.2638 13.8878C13.4998 13.5557 13.4014 13.1414 13.0558 12.898C13.1137 12.8506 13.1672 12.799 13.21 12.7388C13.4801 12.3587 13.3122 11.8708 12.8371 11.6547C12.6047 11.549 12.3404 11.5283 12.099 11.578C12.0305 11.5178 11.9532 11.4628 11.8603 11.4206C11.8553 11.4183 11.8498 11.4173 11.8448 11.4151C11.8105 11.1702 11.6383 10.9406 11.3516 10.8103C10.8764 10.5942 10.2666 10.7284 9.99651 11.1085C9.94276 11.1842 9.91107 11.2645 9.89092 11.3457C9.53936 11.3418 9.19473 11.4831 9.00967 11.7435Z" fill="#E4AC23"/>
<path opacity="0.06" d="M6.39766 34.1741V34.4927V35.1449H7.2129H32.5524V34.1592L35.415 16.7152H35.2408C35.3403 16.5907 35.4275 16.4563 35.5083 16.3169C35.5332 16.2671 35.5581 16.2174 35.583 16.1676C35.6515 16.0233 35.7137 15.8739 35.751 15.7146C35.7697 15.6598 35.7822 15.6051 35.7884 15.5503C35.8008 15.5254 35.8071 15.4955 35.8071 15.4706C35.8071 15.4607 35.8133 15.4457 35.8133 15.4358C35.8195 15.391 35.8257 15.3462 35.8319 15.3064C35.8319 15.3014 35.8319 15.2914 35.8319 15.2864C35.8381 15.2068 35.8443 15.1271 35.8443 15.0475C35.8443 14.9578 35.8381 14.8732 35.8319 14.7836C35.8257 14.7537 35.8257 14.7239 35.8195 14.694C35.8133 14.6243 35.8009 14.5546 35.7759 14.4849C35.7759 14.455 35.7635 14.4301 35.7573 14.4003C35.7387 14.3256 35.72 14.2509 35.6826 14.1763C35.6826 14.1713 35.6826 14.1663 35.6826 14.1614C35.6764 14.1464 35.6764 14.1265 35.664 14.1115C35.664 14.1016 35.6578 14.0966 35.6516 14.0866C35.6329 14.0269 35.608 13.9722 35.5769 13.9174C35.5582 13.8726 35.5395 13.8277 35.5084 13.783C35.5084 13.778 35.5084 13.778 35.5022 13.773C35.4773 13.7182 35.4462 13.6635 35.4089 13.6137C35.3591 13.5341 35.3093 13.4593 35.2471 13.3847C35.1973 13.32 35.1475 13.2552 35.0852 13.1955C35.0666 13.1706 35.0417 13.1457 35.0168 13.1208C34.9608 13.0561 34.8985 12.9964 34.8238 12.9416C34.8052 12.9167 34.7803 12.8969 34.7553 12.8769L34.7491 12.8719C34.6869 12.8172 34.6309 12.7724 34.5624 12.7276C34.5438 12.7077 34.5188 12.6878 34.4939 12.6728V12.6678C34.5624 12.5683 34.6246 12.4687 34.6744 12.3642C34.7303 12.2596 34.7801 12.1501 34.8237 12.0406C34.861 11.9509 34.8921 11.8563 34.917 11.7618C34.9294 11.7269 34.9356 11.6971 34.9419 11.6622C34.9668 11.5627 34.9855 11.4581 34.9979 11.3536C35.0165 11.2341 35.0228 11.1146 35.0228 10.9951C35.0228 10.7562 34.9917 10.5272 34.9357 10.3031C34.9171 10.2185 34.8921 10.1388 34.861 10.0592C34.861 10.0542 34.8548 10.0542 34.8548 10.0542C34.8486 10.0194 34.8362 9.98454 34.8237 9.9497C34.7428 9.74063 34.637 9.54149 34.5126 9.35229C34.4876 9.31745 34.4628 9.2826 34.4379 9.24776C34.3881 9.1731 34.3321 9.1034 34.2698 9.03371C34.1889 8.93415 34.1018 8.83955 33.9961 8.74495C33.9837 8.73501 33.9712 8.72004 33.9587 8.7101C33.909 8.65532 33.8467 8.60557 33.7845 8.55078L33.7783 8.55575L33.3801 8.87439L29.105 12.2945L28.5885 12.7077L27.5804 13.5141L26.5474 14.3406L23.828 16.5161L23.5791 16.7152L23.5417 16.7451L22.21 17.8105L21.7122 18.2087L20.5423 19.1446L17.3126 21.7284L13.2241 24.9991L9.41574 28.0459L5.85626 30.8934L6.39766 34.1741Z" fill="#040000"/>
</svg>
