<svg width="561" height="331" viewBox="0 0 561 331" fill="none" xmlns="http://www.w3.org/2000/svg">
<g opacity="0.03">
<path d="M4.67263 8.07575e-09L0 8.14362e-09L0 4.77358L4.67263 4.77358L4.67263 8.07575e-09Z" fill="white"/>
<path d="M274.517 4.15661e-09C274.517 1.58254 275.132 3.10026 276.228 4.21929C277.323 5.33831 278.809 5.96697 280.358 5.96697C281.907 5.96697 283.392 5.33831 284.488 4.21929C285.583 3.10026 286.198 1.58254 286.198 3.98695e-09L274.517 4.15661e-09ZM140.179 0.334151C129.201 0.360291 118.343 2.6665 108.265 7.11263C107.538 7.39269 106.872 7.81823 106.308 8.36431C105.744 8.91039 105.292 9.56603 104.979 10.2928C104.666 11.0196 104.498 11.8029 104.485 12.5968C104.472 13.3907 104.614 14.1793 104.903 14.9163C105.193 15.6533 105.623 16.324 106.169 16.889C106.715 17.4539 107.366 17.9018 108.084 18.2065C108.802 18.5111 109.572 18.6663 110.349 18.6631C111.126 18.6598 111.895 18.498 112.61 18.1873C121.309 14.3218 130.693 12.3233 140.179 12.3158C149.664 12.3158 159.056 14.3207 167.747 18.1873C168.879 18.6967 170.14 18.8259 171.348 18.5564C172.556 18.287 173.649 17.6327 174.47 16.6879C175.291 15.7431 175.797 14.5565 175.916 13.2989C176.035 12.0414 175.759 10.7779 175.13 9.69037C174.444 8.49433 173.37 7.58208 172.093 7.11263C162.015 2.6665 151.157 0.360291 140.179 0.334151V0.334151ZM262.882 1.90943C261.927 1.98051 261.005 2.29016 260.195 2.81112C259.385 3.33209 258.713 4.04841 258.237 4.89707C257.762 5.74574 257.498 6.70074 257.469 7.67807C257.439 8.65539 257.646 9.6251 258.069 10.5019C258.708 11.9236 259.475 13.2818 260.359 14.5594C260.79 15.2196 261.346 15.7852 261.995 16.2231C262.643 16.661 263.37 16.9624 264.133 17.1096C264.897 17.2568 265.682 17.2469 266.441 17.0804C267.201 16.9139 267.921 16.5942 268.558 16.1401C269.195 15.6859 269.738 15.1064 270.153 14.4354C270.568 13.7645 270.848 13.0157 270.977 12.2328C271.105 11.4499 271.08 10.6486 270.901 9.87599C270.723 9.10337 270.395 8.37488 269.938 7.7332C269.437 7.00963 269 6.24297 268.629 5.44188C268.145 4.32925 267.34 3.39448 266.321 2.76305C265.302 2.13162 264.118 1.83375 262.929 1.90943L262.882 1.90943ZM205.642 2.62547C204.834 2.6873 204.047 2.92038 203.332 3.30988C202.616 3.69938 201.988 4.23676 201.487 4.88784C200.986 5.53891 200.623 6.28941 200.421 7.09157C200.22 7.89374 200.184 8.73001 200.316 9.54716C201.609 20.6991 205.106 31.4664 210.595 41.196C216.082 50.9122 223.442 59.3895 232.23 66.1141C233.085 66.8424 234.127 67.3055 235.232 67.4488C236.337 67.5921 237.459 67.4097 238.466 66.923C239.473 66.4363 240.322 65.6657 240.915 64.7019C241.507 63.7382 241.817 62.6216 241.808 61.4837C241.808 59.5265 240.874 57.7603 239.425 56.7101C231.807 50.9346 225.43 43.6234 220.688 35.229C215.943 26.8249 212.937 17.5153 211.857 7.87641C211.681 6.35279 210.936 4.95714 209.779 3.97932C208.622 3.0015 207.14 2.51665 205.642 2.62547V2.62547ZM244.519 6.15792C243.606 6.21697 242.72 6.49392 241.932 6.96649C241.144 7.43905 240.475 8.09404 239.98 8.87877C239.484 9.66349 239.176 10.556 239.08 11.4846C238.983 12.4132 239.102 13.3519 239.425 14.2253C241.251 19.7028 244.108 24.7624 247.836 29.1188C248.6 30.079 249.637 30.7729 250.804 31.1044C251.971 31.4359 253.21 31.3887 254.349 30.9692C255.488 30.5497 256.472 29.7788 257.164 28.7631C257.855 27.7474 258.221 26.5372 258.209 25.3C258.209 23.8202 257.649 22.4358 256.761 21.3856C253.93 18.1356 251.769 14.3368 250.406 10.2155C249.998 8.97215 249.2 7.90096 248.135 7.16752C247.071 6.43408 245.8 6.07926 244.519 6.15792V6.15792ZM225.221 6.49207C224.356 6.55215 223.516 6.80786 222.761 7.24068C222.005 7.6735 221.353 8.27259 220.852 8.99455C220.351 9.71652 220.014 10.5433 219.864 11.4149C219.715 12.2866 219.757 13.1813 219.987 14.0343C221.374 20.218 223.657 26.1552 226.763 31.6488C229.866 37.142 233.756 42.1299 238.304 46.4469C239.121 47.274 240.158 47.8364 241.286 48.0636C242.415 48.2908 243.583 48.1727 244.646 47.7241C245.709 47.2756 246.619 46.5164 247.261 45.5419C247.903 44.5675 248.25 43.421 248.257 42.2462C248.257 40.48 247.556 38.9047 246.388 37.8068C242.628 34.2808 239.414 30.1926 236.856 25.6819C234.309 21.1576 232.45 16.2646 231.342 11.1702C231.043 9.77771 230.266 8.54045 229.152 7.68236C228.038 6.82426 226.66 6.40202 225.267 6.49207L225.221 6.49207ZM376.147 15.2755C374.745 15.2755 373.39 15.8005 372.408 16.6598C363.603 23.3786 356.226 31.8563 350.727 41.5779C345.238 51.3075 341.741 62.0748 340.448 73.2267C340.237 74.7966 340.645 76.3877 341.583 77.6499C342.521 78.9122 343.911 79.7422 345.447 79.9575C346.984 80.1727 348.541 79.7555 349.777 78.7976C351.013 77.8397 351.825 76.4196 352.036 74.8497C353.108 65.2308 356.098 55.9382 360.82 47.5449C365.575 39.1451 371.968 31.8334 379.604 26.0637C380.605 25.3186 381.348 24.268 381.725 23.0636C382.103 21.8591 382.097 20.5631 381.707 19.3627C381.317 18.1622 380.564 17.1194 379.556 16.3848C378.548 15.6501 377.338 15.2617 376.1 15.2755L376.147 15.2755ZM140.179 19.4285C133.964 19.4285 127.796 20.4309 121.862 22.2926C121.126 22.512 120.439 22.8774 119.841 23.368C119.243 23.8586 118.745 24.4647 118.376 25.1518C118.007 25.8389 117.775 26.5934 117.691 27.3724C117.608 28.1513 117.676 28.9394 117.89 29.6917C118.105 30.4439 118.463 31.1456 118.943 31.7566C119.423 32.3676 120.017 32.8761 120.689 33.2528C121.362 33.6296 122.1 33.8674 122.863 33.9525C123.625 34.0377 124.397 33.9686 125.133 33.7492C130.001 32.1801 135.074 31.3753 140.179 31.3624C145.319 31.3624 150.365 32.2217 155.225 33.7492C156.712 34.1923 158.31 34.0138 159.669 33.2528C161.027 32.4919 162.034 31.2109 162.467 29.6917C162.901 28.1724 162.726 26.5394 161.981 25.1518C161.237 23.7642 159.983 22.7357 158.496 22.2926C152.564 20.4081 146.39 19.4427 140.179 19.4285V19.4285ZM382.595 34.513C380.959 34.513 379.511 35.1813 378.483 36.2792C373.919 40.5938 370.013 45.5817 366.895 51.0773C363.806 56.5737 361.538 62.5107 360.166 68.6918C359.916 69.4715 359.826 70.2955 359.902 71.1123C359.978 71.9291 360.218 72.7211 360.607 73.4389C360.996 74.1567 361.526 74.7848 362.163 75.284C362.801 75.7832 363.532 76.1427 364.311 76.3402C365.091 76.5376 365.902 76.5687 366.694 76.4315C367.485 76.2943 368.241 75.9917 368.913 75.5428C369.585 75.0938 370.16 74.508 370.6 73.822C371.041 73.1361 371.338 72.3646 371.474 71.556C372.598 66.4593 374.473 61.5664 377.034 57.0443C379.589 52.5166 382.804 48.4121 386.567 44.8716C387.433 44.0573 388.039 42.9944 388.304 41.8223C388.568 40.6502 388.48 39.4237 388.051 38.3036C387.621 37.1836 386.871 36.2223 385.897 35.5458C384.923 34.8694 383.772 34.5093 382.595 34.513V34.513ZM140.179 38.5705C137.375 38.5705 134.525 38.8569 131.768 39.4298C130.572 39.619 129.462 40.1834 128.593 41.0451C127.724 41.9067 127.139 43.0228 126.919 44.2391C126.698 45.4554 126.853 46.7116 127.362 47.8341C127.87 48.9566 128.708 49.8897 129.759 50.5045C131.067 51.2682 132.516 51.4592 133.871 51.1728C138.033 50.3061 142.324 50.3061 146.487 51.1728C147.242 51.3138 148.016 51.3016 148.766 51.1369C149.516 50.9721 150.227 50.658 150.859 50.2125C151.49 49.767 152.029 49.1989 152.446 48.5405C152.862 47.8821 153.147 47.1464 153.286 46.3753C153.424 45.6043 153.412 44.813 153.25 44.0466C153.089 43.2803 152.782 42.5539 152.346 41.909C151.91 41.264 151.353 40.7131 150.709 40.2877C150.064 39.8623 149.344 39.5708 148.59 39.4298C145.82 38.8642 143.003 38.5764 140.179 38.5705V38.5705ZM392.547 51.4115C390.678 51.4115 389.09 52.223 388.015 53.6073C384.288 57.9644 381.431 63.0238 379.604 68.5009C379.292 69.2492 379.134 70.0548 379.138 70.8681C379.142 71.6814 379.308 72.4854 379.627 73.2305C379.947 73.9756 380.411 74.6462 380.994 75.2011C381.576 75.756 382.263 76.1834 383.012 76.4572C383.762 76.731 384.559 76.8452 385.353 76.793C386.148 76.7409 386.923 76.5233 387.632 76.1537C388.342 75.7841 388.969 75.2703 389.477 74.6438C389.985 74.0173 390.362 73.2914 390.585 72.5107C391.931 68.3916 394.076 64.5924 396.893 61.3405C397.639 60.482 398.127 59.4217 398.298 58.2869C398.47 57.1521 398.317 55.991 397.858 54.9428C397.399 53.8946 396.654 53.0039 395.712 52.3776C394.77 51.7512 393.671 51.4157 392.547 51.4115V51.4115ZM140.179 57.6648C139.431 57.6648 138.637 57.7126 137.889 57.808C137.117 57.8655 136.363 58.0793 135.672 58.4372C134.981 58.795 134.367 59.2897 133.865 59.8924C133.363 60.4951 132.983 61.1938 132.748 61.9478C132.513 62.7019 132.427 63.4961 132.495 64.2844C132.563 65.0728 132.784 65.8393 133.145 66.5395C133.506 67.2398 134 67.8596 134.597 68.3631C135.195 68.8665 135.885 69.2435 136.626 69.472C137.368 69.7006 138.147 69.7761 138.917 69.6943C139.772 69.6111 140.632 69.6111 141.487 69.6943C142.254 69.7601 143.026 69.6709 143.76 69.4319C144.493 69.1928 145.173 68.8085 145.761 68.301C146.349 67.7935 146.833 67.1726 147.186 66.4738C147.539 65.7751 147.754 65.0121 147.819 64.2285C147.883 63.4449 147.796 62.656 147.562 61.9069C147.328 61.1578 146.952 60.463 146.455 59.8624C145.958 59.2618 145.35 58.767 144.666 58.4063C143.982 58.0457 143.235 57.8261 142.468 57.7603C141.707 57.6966 140.943 57.6647 140.179 57.6648V57.6648ZM405.35 65.589C403.341 65.589 401.566 66.5914 400.491 68.2145C399.621 69.4923 398.87 70.8508 398.248 72.272C397.872 72.9864 397.642 73.7716 397.573 74.5797C397.504 75.3878 397.597 76.2018 397.847 76.9719C398.096 77.742 398.496 78.4521 399.023 79.0588C399.55 79.6655 400.193 80.1561 400.912 80.5006C401.631 80.845 402.411 81.0361 403.204 81.0622C403.998 81.0882 404.788 80.9487 405.527 80.6522C406.267 80.3556 406.939 79.9083 407.503 79.3374C408.067 78.7665 408.511 78.0842 408.808 77.332C409.166 76.5241 409.604 75.7563 410.117 75.0407C410.745 74.1476 411.121 73.0942 411.2 71.9969C411.28 70.8997 411.061 69.8014 410.568 68.8233C410.074 67.8452 409.326 67.0255 408.405 66.4547C407.485 65.8839 406.427 65.5843 405.35 65.589V65.589ZM420.537 76.7592C418.987 76.7592 417.502 77.3878 416.406 78.5069C415.311 79.6259 414.696 81.1436 414.696 82.7261C414.696 84.3087 415.311 85.8264 416.406 86.9454C417.502 88.0645 418.987 88.6931 420.537 88.6931C422.086 88.6931 423.571 88.0645 424.667 86.9454C425.762 85.8264 426.377 84.3087 426.377 82.7261C426.377 81.1436 425.762 79.6259 424.667 78.5069C423.571 77.3878 422.086 76.7592 420.537 76.7592ZM140.599 76.7592C139.832 76.7059 139.063 76.8075 138.334 77.0581C137.605 77.3087 136.932 77.7035 136.353 78.2199C135.774 78.7363 135.3 79.3642 134.958 80.0678C134.616 80.7714 134.414 81.5368 134.361 82.3204C134.309 83.104 134.409 83.8904 134.654 84.6347C134.899 85.3791 135.286 86.0668 135.791 86.6585C136.297 87.2503 136.911 87.7345 137.6 88.0836C138.289 88.4327 139.038 88.6398 139.805 88.6931C141.354 88.8007 142.882 88.2753 144.051 87.2323C145.221 86.1894 145.938 84.7144 146.043 83.1319C146.148 81.5494 145.634 79.9889 144.613 78.7938C143.592 77.5986 142.148 76.8668 140.599 76.7592V76.7592ZM437.965 84.5878C436.767 84.495 435.57 84.7852 434.541 85.4181C433.511 86.051 432.699 86.9953 432.218 88.1203C431.873 88.9248 431.45 89.6924 430.956 90.4116C430.499 91.0533 430.171 91.7818 429.993 92.5544C429.815 93.327 429.789 94.1282 429.917 94.9112C430.046 95.6941 430.326 96.4429 430.741 97.1138C431.157 97.7848 431.699 98.3643 432.336 98.8185C432.973 99.2726 433.693 99.5923 434.453 99.7588C435.213 99.9253 435.997 99.9352 436.761 99.788C437.524 99.6408 438.252 99.3394 438.9 98.9015C439.548 98.4636 440.104 97.898 440.535 97.2378C441.42 95.961 442.187 94.6026 442.825 93.1803C443.25 92.3 443.455 91.3263 443.424 90.3454C443.392 89.3646 443.124 88.4068 442.643 87.5571C442.163 86.7073 441.484 85.9918 440.668 85.4738C439.852 84.9559 438.924 84.6516 437.965 84.5878V84.5878ZM495.205 85.3516C493.705 85.2307 492.217 85.7111 491.057 86.6912C489.897 87.6713 489.156 89.0741 488.991 90.6025C487.924 100.238 484.935 109.547 480.206 117.955C475.451 126.354 469.057 133.666 461.422 139.436C460.818 139.919 460.312 140.519 459.935 141.201C459.557 141.883 459.315 142.635 459.221 143.413C459.128 144.19 459.186 144.98 459.391 145.735C459.596 146.49 459.945 147.196 460.417 147.814C460.89 148.431 461.477 148.948 462.145 149.333C462.812 149.719 463.548 149.967 464.31 150.062C465.071 150.157 465.843 150.099 466.583 149.889C467.322 149.679 468.013 149.323 468.618 148.84C477.423 142.121 484.8 133.644 490.299 123.922C495.789 114.193 499.287 103.426 500.579 92.2733C500.711 91.4524 500.673 90.6124 500.469 89.8071C500.264 89.0019 499.897 88.2492 499.391 87.5974C498.885 86.9456 498.252 86.4091 497.531 86.0224C496.81 85.6356 496.018 85.4071 495.205 85.3516V85.3516ZM456.422 88.8841C455.124 88.7751 453.828 89.1162 452.743 89.8524C451.657 90.5886 450.847 91.6769 450.441 92.9416C449.092 97.059 446.947 100.858 444.133 104.112C443.387 104.97 442.899 106.031 442.728 107.165C442.557 108.3 442.71 109.461 443.169 110.509C443.627 111.558 444.372 112.448 445.314 113.075C446.256 113.701 447.355 114.037 448.479 114.041C450.348 114.041 451.937 113.182 453.011 111.845C456.738 107.488 459.595 102.428 461.422 96.9514C461.754 96.0791 461.88 95.1394 461.791 94.208C461.702 93.2766 461.399 92.3797 460.908 91.5898C460.417 90.7999 459.751 90.139 458.963 89.6607C458.176 89.1824 457.289 88.9 456.376 88.8363L456.422 88.8841ZM475.627 89.2182C474.232 89.1181 472.849 89.5365 471.733 90.3962C470.617 91.256 469.842 92.4991 469.552 93.8963C468.444 98.9908 466.585 103.884 464.039 108.408C461.48 112.919 458.266 117.007 454.507 120.533C453.907 121.063 453.419 121.712 453.073 122.44C452.727 123.169 452.53 123.962 452.493 124.771C452.457 125.58 452.582 126.388 452.861 127.146C453.14 127.904 453.568 128.596 454.117 129.18C454.666 129.764 455.326 130.228 456.057 130.543C456.787 130.858 457.572 131.017 458.365 131.012C459.158 131.007 459.941 130.837 460.668 130.513C461.394 130.188 462.048 129.716 462.59 129.125C467.135 124.823 471.025 119.852 474.132 114.375C477.225 108.864 479.493 102.91 480.86 96.7127C481.083 95.8628 481.119 94.9732 480.965 94.1075C480.812 93.2418 480.473 92.4214 479.973 91.7052C479.473 90.989 478.824 90.3946 478.072 89.9647C477.321 89.5347 476.486 89.2798 475.627 89.2182ZM137.983 95.8057C136.434 95.7931 134.943 96.4096 133.839 97.5197C132.735 98.6297 132.108 100.142 132.095 101.725C132.083 103.308 132.686 104.83 133.773 105.958C134.859 107.086 136.34 107.727 137.889 107.74C139.412 107.888 140.945 107.888 142.468 107.74C143.235 107.671 143.982 107.448 144.664 107.085C145.347 106.721 145.953 106.224 146.448 105.621C146.943 105.018 147.316 104.321 147.547 103.571C147.778 102.821 147.863 102.031 147.795 101.248C147.728 100.464 147.51 99.7017 147.154 99.0041C146.798 98.3066 146.311 97.6875 145.721 97.1821C145.131 96.6768 144.449 96.2952 143.715 96.059C142.98 95.8228 142.207 95.7368 141.44 95.8057C140.586 95.8951 139.725 95.8951 138.87 95.8057C138.559 95.7802 138.247 95.7802 137.936 95.8057L137.983 95.8057ZM44.4367 98.0493C43.2148 98.0593 42.0267 98.4604 41.0397 99.1964C40.0527 99.9324 39.3165 100.966 38.9348 102.152C38.553 103.338 38.5449 104.616 38.9116 105.807C39.2783 106.998 40.0014 108.041 40.9789 108.79C48.5973 114.565 54.9746 121.877 59.7162 130.271C64.4484 138.677 67.4385 147.987 68.5007 157.624C68.7176 159.193 69.536 160.611 70.776 161.564C72.0159 162.518 73.5758 162.929 75.1125 162.707C76.6492 162.486 78.0368 161.65 78.97 160.383C79.9033 159.116 80.3057 157.523 80.0888 155.953C78.7967 144.801 75.2994 134.033 69.8091 124.304C64.3101 114.582 56.9337 106.105 48.1281 99.3859C47.0744 98.5057 45.751 98.0325 44.39 98.0493L44.4367 98.0493ZM132.796 114.279C131.334 114.271 129.923 114.822 128.84 115.825C127.756 116.827 127.081 118.208 126.946 119.695C126.811 121.182 127.226 122.667 128.11 123.856C128.995 125.045 130.283 125.852 131.721 126.118C137.275 127.24 142.989 127.24 148.543 126.118C149.301 125.98 150.024 125.691 150.673 125.267C151.321 124.844 151.882 124.294 152.322 123.649C152.763 123.004 153.074 122.276 153.24 121.508C153.405 120.74 153.421 119.947 153.286 119.172C153.151 118.398 152.868 117.659 152.453 116.996C152.038 116.334 151.5 115.761 150.868 115.311C150.237 114.861 149.525 114.543 148.773 114.374C148.022 114.205 147.245 114.189 146.487 114.327C142.324 115.194 138.033 115.194 133.871 114.327C133.516 114.262 133.156 114.23 132.796 114.232L132.796 114.279ZM37.9417 117.335C36.7682 117.341 35.6237 117.707 34.6573 118.388C33.6909 119.068 32.9475 120.029 32.5238 121.147C32.1002 122.265 32.016 123.488 32.2823 124.656C32.5486 125.823 33.153 126.882 34.0167 127.693C37.7548 131.226 40.9789 135.331 43.5489 139.818C46.0945 144.343 47.9536 149.236 49.0626 154.33C49.3165 155.502 49.9103 156.568 50.7665 157.389C51.6227 158.211 52.7016 158.75 53.8621 158.935C55.0227 159.121 56.2111 158.945 57.2721 158.43C58.3331 157.915 59.2174 157.085 59.8096 156.048C60.604 154.616 60.7442 152.993 60.4171 151.466C59.0307 145.282 56.7471 139.345 53.6418 133.851C50.5386 128.358 46.6484 123.37 42.1004 119.053C41.5523 118.501 40.9027 118.065 40.189 117.77C39.4753 117.475 38.7116 117.327 37.9417 117.335V117.335ZM122.75 131.512C121.393 131.654 120.127 132.276 119.172 133.272C118.217 134.268 117.633 135.573 117.522 136.963C117.411 138.352 117.78 139.737 118.564 140.878C119.348 142.019 120.498 142.843 121.815 143.207C127.762 145.096 133.952 146.061 140.179 146.072C146.393 146.072 152.561 145.117 158.496 143.207C159.232 142.988 159.919 142.623 160.517 142.132C161.115 141.641 161.613 141.035 161.981 140.348C162.35 139.661 162.583 138.907 162.666 138.128C162.75 137.349 162.682 136.561 162.467 135.808C162.253 135.056 161.895 134.354 161.415 133.743C160.934 133.132 160.341 132.624 159.669 132.247C158.996 131.87 158.257 131.633 157.495 131.547C156.732 131.462 155.961 131.531 155.225 131.751C150.356 133.319 145.283 134.124 140.179 134.138C135.059 134.129 129.969 133.324 125.086 131.751C124.331 131.51 123.536 131.429 122.75 131.512V131.512ZM28.0358 134.138C26.9119 134.142 25.8131 134.477 24.8711 135.104C23.9292 135.73 23.1842 136.621 22.7255 137.669C22.2667 138.717 22.1137 139.878 22.2849 141.013C22.456 142.148 22.9439 143.208 23.6902 144.067C26.5072 147.319 28.6527 151.118 29.9983 155.237C30.3596 156.317 31.0167 157.269 31.8915 157.979C32.7663 158.689 33.8222 159.128 34.9339 159.244C36.0455 159.359 37.1663 159.147 38.1633 158.631C39.1602 158.115 39.9915 157.318 40.5584 156.335C41.4929 154.712 41.5864 152.85 41.0257 151.227C39.185 145.746 36.3118 140.687 32.5682 136.333C32.0198 135.646 31.3285 135.093 30.5445 134.713C29.7605 134.333 28.9035 134.137 28.0358 134.138V134.138ZM110.04 146.835C108.695 146.898 107.412 147.433 106.409 148.35C105.406 149.268 104.744 150.512 104.535 151.871C104.326 153.23 104.583 154.621 105.263 155.808C105.942 156.996 107.003 157.907 108.265 158.387C118.343 162.834 129.201 165.14 140.179 165.166C151.169 165.16 162.043 162.87 172.14 158.435C172.851 158.14 173.499 157.706 174.047 157.155C174.594 156.605 175.03 155.949 175.329 155.227C175.628 154.504 175.786 153.729 175.792 152.944C175.798 152.159 175.652 151.381 175.364 150.654C175.075 149.927 174.65 149.265 174.111 148.706C173.572 148.147 172.931 147.702 172.223 147.396C171.516 147.09 170.757 146.929 169.989 146.923C169.221 146.917 168.459 147.066 167.747 147.36C159.048 151.225 149.665 153.223 140.179 153.232C130.693 153.223 121.31 151.225 112.61 147.36C111.799 147.007 110.921 146.844 110.04 146.883L110.04 146.835ZM15.2328 148.267C14.1441 148.258 13.0747 148.561 12.1451 149.14C11.2156 149.719 10.463 150.552 9.97221 151.544C9.48144 152.537 9.27206 153.65 9.36769 154.758C9.46332 155.866 9.86015 156.925 10.5134 157.815C11.004 158.519 11.4265 159.27 11.775 160.058C12.1002 160.77 12.5595 161.409 13.1264 161.939C13.6934 162.469 14.3571 162.88 15.0795 163.148C15.8019 163.416 16.569 163.537 17.3369 163.502C18.1048 163.467 18.8585 163.278 19.5549 162.946C20.2514 162.614 20.877 162.145 21.396 161.566C21.915 160.986 22.3172 160.308 22.5797 159.57C22.8422 158.832 22.9598 158.049 22.9259 157.264C22.892 156.48 22.7071 155.71 22.3819 154.998C21.729 153.574 20.9468 152.216 20.0456 150.941C19.5131 150.136 18.7964 149.476 17.9577 149.018C17.119 148.561 16.1836 148.319 15.2328 148.315L15.2328 148.267ZM560.715 159.533C559.166 159.533 557.681 160.162 556.585 161.281C555.49 162.4 554.875 163.917 554.875 165.5C554.875 167.083 555.49 168.6 556.585 169.719C557.681 170.838 559.166 171.467 560.715 171.467L560.715 159.533ZM2.31701e-09 159.533L2.49034e-09 171.467C1.54907 171.467 3.0347 170.838 4.13006 169.719C5.22542 168.6 5.84078 167.083 5.84078 165.5C5.84078 163.917 5.22542 162.4 4.13006 161.281C3.0347 160.162 1.54907 159.533 2.31701e-09 159.533H2.31701e-09ZM420.537 165.834C409.562 165.845 398.704 168.135 388.622 172.565C387.895 172.845 387.23 173.27 386.666 173.817C386.101 174.363 385.65 175.018 385.336 175.745C385.023 176.472 384.856 177.255 384.843 178.049C384.83 178.843 384.972 179.632 385.261 180.369C385.55 181.106 385.981 181.776 386.527 182.341C387.073 182.906 387.724 183.354 388.442 183.659C389.159 183.963 389.929 184.119 390.707 184.115C391.484 184.112 392.253 183.95 392.968 183.64C401.667 179.774 411.05 177.776 420.537 177.768C430.022 177.768 439.414 179.821 448.105 183.687C448.82 183.979 449.584 184.124 450.354 184.113C451.123 184.103 451.883 183.938 452.591 183.628C453.298 183.318 453.938 182.868 454.476 182.305C455.013 181.742 455.436 181.076 455.721 180.346C456.007 179.616 456.148 178.835 456.139 178.049C456.129 177.262 455.967 176.486 455.663 175.763C455.36 175.041 454.92 174.386 454.368 173.838C453.817 173.289 453.165 172.856 452.451 172.565C442.366 168.152 431.508 165.878 420.537 165.882L420.537 165.834ZM543.24 167.362C542.285 167.433 541.362 167.742 540.552 168.263C539.742 168.784 539.07 169.501 538.595 170.349C538.119 171.198 537.856 172.153 537.826 173.13C537.797 174.108 538.003 175.077 538.427 175.954C539.063 177.377 539.83 178.736 540.717 180.012C541.148 180.672 541.704 181.238 542.352 181.675C543 182.113 543.727 182.415 544.491 182.562C545.255 182.709 546.039 182.699 546.799 182.533C547.559 182.366 548.278 182.046 548.916 181.592C549.553 181.138 550.095 180.559 550.511 179.888C550.926 179.217 551.206 178.468 551.334 177.685C551.463 176.902 551.437 176.101 551.259 175.328C551.08 174.556 550.753 173.827 550.295 173.185C549.785 172.468 549.347 171.701 548.987 170.894C548.5 169.773 547.688 168.833 546.659 168.201C545.631 167.569 544.437 167.276 543.24 167.362V167.362ZM486 168.125C485.192 168.187 484.405 168.42 483.689 168.81C482.974 169.199 482.346 169.737 481.845 170.388C481.343 171.039 480.981 171.789 480.779 172.592C480.577 173.394 480.541 174.23 480.673 175.047C481.952 186.196 485.434 196.963 490.906 206.696C496.411 216.4 503.787 224.86 512.587 231.566C513.808 232.541 515.358 232.981 516.896 232.788C518.433 232.596 519.834 231.787 520.788 230.54C521.742 229.293 522.172 227.71 521.984 226.139C521.795 224.568 521.004 223.137 519.783 222.162C512.148 216.392 505.754 209.08 500.999 200.681C496.277 192.288 493.287 182.995 492.215 173.376C492.038 171.853 491.294 170.457 490.137 169.479C488.98 168.502 487.498 168.017 486 168.125V168.125ZM524.83 171.61C523.916 171.674 523.029 171.956 522.242 172.435C521.454 172.913 520.788 173.574 520.297 174.364C519.806 175.154 519.503 176.05 519.414 176.982C519.325 177.913 519.451 178.853 519.783 179.725C521.61 185.202 524.467 190.262 528.194 194.619C528.677 195.26 529.282 195.794 529.973 196.188C530.664 196.582 531.426 196.829 532.214 196.914C533.001 196.998 533.797 196.918 534.553 196.678C535.309 196.438 536.009 196.044 536.612 195.52C537.214 194.995 537.706 194.351 538.057 193.626C538.408 192.901 538.611 192.111 538.654 191.303C538.697 190.496 538.579 189.688 538.307 188.929C538.035 188.169 537.615 187.474 537.072 186.886C534.258 183.631 532.113 179.833 530.764 175.715C530.362 174.455 529.56 173.367 528.485 172.624C527.411 171.88 526.125 171.524 524.83 171.61V171.61ZM505.578 171.992C504.719 172.054 503.884 172.309 503.133 172.739C502.382 173.169 501.733 173.763 501.232 174.479C500.732 175.195 500.393 176.016 500.24 176.881C500.087 177.747 500.122 178.637 500.345 179.487C501.712 185.684 503.98 191.638 507.074 197.149C510.192 202.644 514.098 207.632 518.662 211.947C519.481 212.777 520.523 213.34 521.656 213.566C522.788 213.791 523.961 213.669 525.025 213.215C526.09 212.76 526.999 211.994 527.638 211.012C528.277 210.03 528.616 208.877 528.614 207.698C528.614 205.98 527.914 204.357 526.745 203.307C519.171 196.19 513.906 186.88 511.653 176.622C511.353 175.221 510.569 173.977 509.445 173.118C508.321 172.259 506.932 171.842 505.532 171.944L505.578 171.992ZM95.7889 180.775C94.3871 180.775 93.0788 181.253 92.0508 182.112C83.2452 188.831 75.8687 197.309 70.3698 207.03C64.8807 216.76 61.3834 227.527 60.09 238.679C59.9826 239.456 60.0261 240.248 60.2181 241.008C60.4101 241.768 60.7467 242.482 61.2088 243.109C61.6709 243.736 62.2494 244.265 62.9113 244.663C63.5732 245.062 64.3055 245.324 65.0663 245.434C65.8272 245.543 66.6018 245.499 67.3459 245.303C68.0899 245.107 68.7889 244.763 69.4029 244.291C70.0168 243.819 70.5338 243.228 70.9241 242.551C71.3145 241.875 71.5707 241.127 71.6781 240.35C72.7429 230.714 75.7329 221.404 80.4626 212.997C85.2168 204.597 91.6105 197.286 99.2466 191.516C100.224 190.767 100.947 189.724 101.314 188.533C101.681 187.342 101.673 186.064 101.291 184.878C100.909 183.692 100.173 182.659 99.1858 181.923C98.1988 181.187 97.0108 180.785 95.7889 180.775V180.775ZM420.537 184.928C414.322 184.928 408.154 185.883 402.22 187.793C401.483 188.012 400.797 188.377 400.199 188.868C399.6 189.359 399.103 189.965 398.734 190.652C398.365 191.339 398.132 192.093 398.049 192.872C397.966 193.651 398.033 194.439 398.248 195.192C398.463 195.944 398.821 196.646 399.301 197.257C399.781 197.868 400.374 198.376 401.047 198.753C401.719 199.13 402.458 199.367 403.22 199.453C403.983 199.538 404.754 199.469 405.491 199.249C410.359 197.68 415.432 196.875 420.537 196.862C425.676 196.862 430.723 197.722 435.582 199.249C436.707 199.616 437.914 199.625 439.044 199.277C440.174 198.929 441.175 198.239 441.913 197.298C442.652 196.357 443.094 195.21 443.182 194.008C443.27 192.805 442.999 191.603 442.404 190.561C441.627 189.194 440.349 188.198 438.853 187.793C432.922 185.909 426.748 184.943 420.537 184.928V184.928ZM102.237 200.013C100.648 200.013 99.1532 200.681 98.1252 201.779C93.5606 206.093 89.6545 211.081 86.5371 216.577C83.4468 222.073 81.1788 228.01 79.8085 234.192C79.6244 234.953 79.589 235.745 79.7042 236.52C79.8194 237.296 80.0831 238.041 80.4801 238.712C80.8771 239.384 81.3997 239.969 82.0181 240.434C82.6364 240.899 83.3384 241.236 84.0839 241.424C84.8295 241.612 85.604 241.648 86.3632 241.53C87.1225 241.413 87.8516 241.143 88.5089 240.738C89.1663 240.332 89.739 239.798 90.1944 239.166C90.6498 238.535 90.9789 237.818 91.163 237.056C92.2713 231.962 94.1304 227.069 96.6767 222.544C99.2324 218.017 102.446 213.913 106.209 210.372C107.075 209.557 107.681 208.494 107.946 207.322C108.211 206.15 108.123 204.924 107.693 203.804C107.264 202.684 106.513 201.722 105.539 201.046C104.566 200.369 103.415 200.009 102.237 200.013V200.013ZM420.537 204.023C417.733 204.023 414.883 204.309 412.126 204.882C410.929 205.071 409.82 205.636 408.951 206.497C408.082 207.359 407.497 208.475 407.276 209.691C407.056 210.908 407.21 212.164 407.719 213.286C408.228 214.409 409.066 215.342 410.117 215.957C411.425 216.721 412.873 216.911 414.228 216.625C418.391 215.758 422.682 215.758 426.845 216.625C427.599 216.769 428.374 216.76 429.126 216.598C429.877 216.436 430.59 216.125 431.223 215.682C431.857 215.238 432.399 214.672 432.818 214.015C433.237 213.358 433.525 212.623 433.667 211.851C433.808 211.08 433.799 210.289 433.64 209.521C433.482 208.753 433.177 208.025 432.743 207.378C432.309 206.731 431.755 206.177 431.112 205.749C430.468 205.321 429.749 205.026 428.994 204.882C426.209 204.313 423.376 204.026 420.537 204.023V204.023ZM112.19 216.911C110.367 216.911 108.732 217.723 107.704 219.06C103.972 223.431 101.115 228.507 99.2933 234.001C98.9815 234.749 98.8226 235.555 98.8266 236.368C98.8306 237.181 98.9973 237.985 99.3164 238.73C99.6356 239.476 100.1 240.146 100.683 240.701C101.265 241.256 101.952 241.683 102.701 241.957C103.451 242.231 104.248 242.345 105.042 242.293C105.837 242.241 106.612 242.023 107.321 241.654C108.031 241.284 108.658 240.77 109.166 240.144C109.674 239.517 110.051 238.791 110.274 238.011C111.617 233.876 113.763 230.061 116.582 226.793C117.331 225.931 117.82 224.867 117.989 223.727C118.159 222.588 118.002 221.423 117.537 220.373C117.073 219.323 116.321 218.433 115.372 217.81C114.423 217.188 113.318 216.859 112.19 216.864L112.19 216.911ZM420.537 223.069C419.789 223.069 418.995 223.069 418.247 223.213C417.474 223.27 416.721 223.484 416.03 223.842C415.339 224.2 414.724 224.694 414.222 225.297C413.72 225.9 413.341 226.598 413.106 227.352C412.87 228.106 412.784 228.901 412.853 229.689C412.921 230.477 413.142 231.244 413.503 231.944C413.864 232.644 414.357 233.264 414.955 233.768C415.553 234.271 416.242 234.648 416.984 234.877C417.726 235.105 418.504 235.181 419.275 235.099C420.129 235.013 420.99 235.013 421.845 235.099C422.612 235.165 423.384 235.075 424.117 234.836C424.851 234.597 425.531 234.213 426.119 233.706C426.707 233.198 427.191 232.577 427.544 231.878C427.897 231.18 428.112 230.417 428.176 229.633C428.241 228.849 428.153 228.061 427.919 227.311C427.685 226.562 427.309 225.868 426.812 225.267C426.316 224.666 425.708 224.172 425.024 223.811C424.34 223.45 423.593 223.231 422.826 223.165C422.065 223.098 421.301 223.066 420.537 223.069V223.069ZM124.993 231.041C122.984 231.041 121.255 232.091 120.133 233.667C119.265 234.946 118.514 236.304 117.89 237.724C117.514 238.439 117.285 239.224 117.216 240.032C117.147 240.84 117.24 241.654 117.489 242.424C117.738 243.194 118.139 243.904 118.666 244.511C119.193 245.118 119.835 245.608 120.554 245.953C121.273 246.297 122.053 246.488 122.847 246.514C123.64 246.541 124.431 246.401 125.17 246.104C125.909 245.808 126.581 245.361 127.145 244.79C127.709 244.219 128.153 243.536 128.451 242.784C128.81 241.978 129.249 241.21 129.759 240.493C130.388 239.6 130.763 238.546 130.842 237.449C130.922 236.352 130.703 235.254 130.21 234.276C129.717 233.297 128.968 232.478 128.048 231.907C127.127 231.336 126.07 231.037 124.993 231.041V231.041ZM140.179 242.259C138.63 242.259 137.144 242.888 136.049 244.007C134.953 245.126 134.338 246.644 134.338 248.226C134.338 249.809 134.953 251.326 136.049 252.445C137.144 253.564 138.63 254.193 140.179 254.193C141.728 254.193 143.214 253.564 144.309 252.445C145.404 251.326 146.02 249.809 146.02 248.226C146.02 246.644 145.404 245.126 144.309 244.007C143.214 242.888 141.728 242.259 140.179 242.259V242.259ZM420.957 242.259C419.408 242.152 417.881 242.677 416.711 243.72C415.541 244.763 414.824 246.238 414.719 247.82C414.614 249.403 415.128 250.963 416.149 252.159C417.17 253.354 418.614 254.086 420.163 254.193C420.93 254.246 421.7 254.145 422.428 253.894C423.157 253.644 423.83 253.249 424.409 252.732C424.988 252.216 425.462 251.588 425.804 250.884C426.146 250.181 426.348 249.415 426.401 248.632C426.453 247.848 426.353 247.062 426.108 246.318C425.863 245.573 425.476 244.886 424.971 244.294C424.465 243.702 423.851 243.218 423.162 242.869C422.473 242.52 421.724 242.312 420.957 242.259V242.259ZM157.608 250.088C156.417 250.005 155.231 250.3 154.21 250.932C153.19 251.565 152.386 252.503 151.907 253.62C151.547 254.427 151.109 255.194 150.599 255.912C150.141 256.553 149.814 257.282 149.635 258.054C149.457 258.827 149.431 259.628 149.56 260.411C149.688 261.194 149.968 261.943 150.384 262.614C150.799 263.285 151.341 263.864 151.978 264.318C152.616 264.773 153.335 265.092 154.095 265.259C154.855 265.425 155.64 265.435 156.403 265.288C157.167 265.141 157.894 264.839 158.542 264.402C159.19 263.964 159.746 263.398 160.178 262.738C161.075 261.46 161.857 260.102 162.514 258.68C162.94 257.796 163.145 256.819 163.111 255.834C163.077 254.85 162.805 253.889 162.319 253.038C161.833 252.188 161.149 251.473 160.326 250.958C159.504 250.443 158.57 250.144 157.608 250.088V250.088ZM214.847 250.804C213.347 250.697 211.865 251.19 210.714 252.178C209.563 253.167 208.834 254.574 208.68 256.103C207.6 265.742 204.594 275.052 199.848 283.455C195.107 291.85 188.729 299.161 181.111 304.936C180.507 305.419 180.001 306.019 179.624 306.701C179.246 307.383 179.004 308.135 178.91 308.913C178.817 309.69 178.875 310.48 179.08 311.235C179.285 311.99 179.634 312.696 180.106 313.314C180.579 313.931 181.166 314.448 181.834 314.833C182.501 315.219 183.237 315.467 183.999 315.562C184.76 315.657 185.532 315.599 186.272 315.389C187.011 315.179 187.702 314.823 188.307 314.34C197.113 307.621 204.489 299.144 209.988 289.422C215.477 279.693 218.974 268.925 220.268 257.773C220.407 256.945 220.374 256.096 220.17 255.282C219.966 254.468 219.596 253.707 219.085 253.049C218.573 252.391 217.931 251.851 217.201 251.464C216.471 251.077 215.669 250.852 214.847 250.804V250.804ZM176.065 254.336C174.76 254.23 173.459 254.578 172.374 255.324C171.288 256.069 170.48 257.168 170.084 258.442C168.736 262.56 166.59 266.358 163.776 269.612C163.233 270.2 162.812 270.895 162.54 271.655C162.268 272.414 162.15 273.222 162.193 274.03C162.236 274.837 162.439 275.627 162.791 276.352C163.142 277.077 163.633 277.721 164.236 278.246C164.838 278.77 165.539 279.165 166.295 279.404C167.051 279.644 167.846 279.724 168.634 279.64C169.421 279.555 170.183 279.309 170.874 278.914C171.565 278.52 172.171 277.986 172.654 277.345C176.384 272.991 179.242 267.93 181.064 262.451C181.396 261.579 181.523 260.639 181.433 259.708C181.344 258.777 181.042 257.88 180.55 257.09C180.059 256.3 179.393 255.639 178.606 255.161C177.818 254.682 176.932 254.4 176.018 254.336L176.065 254.336ZM195.316 254.718C193.921 254.618 192.538 255.036 191.422 255.896C190.306 256.756 189.531 257.999 189.241 259.396C188.104 264.496 186.213 269.389 183.634 273.908C181.09 278.416 177.891 282.503 174.149 286.033C173.285 286.844 172.681 287.903 172.414 289.071C172.148 290.238 172.232 291.461 172.656 292.579C173.08 293.697 173.823 294.658 174.789 295.339C175.756 296.019 176.9 296.386 178.074 296.392C179.709 296.392 181.158 295.723 182.232 294.673C186.78 290.356 190.67 285.368 193.774 279.875C196.905 274.338 199.147 268.418 200.549 262.213C200.772 261.363 200.808 260.473 200.654 259.607C200.501 258.742 200.162 257.921 199.662 257.205C199.162 256.489 198.513 255.895 197.761 255.465C197.01 255.035 196.175 254.78 195.316 254.718V254.718ZM418.34 261.258C417.573 261.252 416.813 261.4 416.102 261.694C415.391 261.988 414.743 262.422 414.197 262.972C413.65 263.522 413.215 264.176 412.915 264.897C412.616 265.619 412.459 266.394 412.453 267.177C412.447 267.961 412.592 268.738 412.88 269.464C413.167 270.191 413.593 270.852 414.131 271.411C414.669 271.969 415.309 272.414 416.015 272.719C416.722 273.025 417.48 273.186 418.247 273.192C419.77 273.34 421.303 273.34 422.826 273.192C423.593 273.123 424.339 272.9 425.022 272.537C425.705 272.173 426.311 271.676 426.806 271.073C427.3 270.47 427.674 269.774 427.905 269.023C428.136 268.273 428.22 267.483 428.153 266.7C428.085 265.916 427.867 265.154 427.512 264.456C427.156 263.759 426.669 263.14 426.079 262.634C425.489 262.129 424.807 261.747 424.072 261.511C423.338 261.275 422.565 261.189 421.798 261.258C420.944 261.347 420.083 261.347 419.228 261.258C418.917 261.233 418.605 261.233 418.294 261.258L418.34 261.258ZM324.794 263.502C323.56 263.498 322.357 263.894 321.357 264.632C320.357 265.371 319.611 266.414 319.227 267.612C318.843 268.81 318.84 270.101 319.219 271.301C319.598 272.501 320.34 273.547 321.337 274.29C328.938 280.07 335.299 287.381 340.027 295.771C344.779 304.159 347.8 313.451 348.905 323.076C348.965 323.89 349.189 324.683 349.561 325.405C349.933 326.128 350.446 326.764 351.069 327.276C351.692 327.787 352.411 328.163 353.181 328.379C353.952 328.596 354.758 328.648 355.549 328.534C356.34 328.419 357.1 328.14 357.781 327.714C358.462 327.287 359.051 326.722 359.51 326.054C359.969 325.386 360.289 324.628 360.45 323.829C360.611 323.029 360.61 322.204 360.447 321.405C359.154 310.253 355.657 299.485 350.167 289.756C344.663 280.052 337.287 271.591 328.486 264.886C327.439 263.988 326.115 263.498 324.748 263.502L324.794 263.502ZM413.154 279.732C411.692 279.723 410.28 280.274 409.197 281.277C408.114 282.28 407.438 283.661 407.303 285.148C407.168 286.634 407.584 288.119 408.468 289.308C409.352 290.497 410.641 291.304 412.079 291.57C417.633 292.691 423.347 292.691 428.901 291.57C429.672 291.452 430.413 291.176 431.079 290.76C431.745 290.344 432.323 289.796 432.778 289.148C433.233 288.5 433.556 287.765 433.729 286.987C433.901 286.209 433.919 285.404 433.781 284.619C433.644 283.834 433.354 283.085 432.928 282.416C432.503 281.748 431.95 281.173 431.303 280.727C430.657 280.28 429.929 279.97 429.163 279.816C428.397 279.661 427.609 279.665 426.845 279.827C422.682 280.694 418.391 280.694 414.228 279.827C413.875 279.746 413.516 279.698 413.154 279.684L413.154 279.732ZM318.299 282.787C317.122 282.783 315.971 283.143 314.997 283.82C314.024 284.496 313.273 285.457 312.843 286.578C312.414 287.698 312.326 288.924 312.591 290.096C312.856 291.268 313.461 292.331 314.328 293.146C318.066 296.678 321.337 300.783 323.86 305.27C326.427 309.807 328.302 314.716 329.42 319.83C329.674 321.002 330.268 322.068 331.124 322.889C331.98 323.711 333.059 324.25 334.22 324.435C335.38 324.621 336.569 324.445 337.63 323.93C338.691 323.415 339.575 322.585 340.167 321.548C340.962 320.116 341.102 318.493 340.775 317.013C339.393 310.813 337.109 304.86 333.999 299.351C330.896 293.858 327.006 288.871 322.458 284.553C321.91 284.001 321.26 283.565 320.547 283.27C319.833 282.975 319.069 282.827 318.299 282.835L318.299 282.787ZM403.108 296.964C401.75 297.106 400.484 297.729 399.529 298.724C398.574 299.72 397.991 301.026 397.88 302.415C397.769 303.804 398.137 305.189 398.921 306.33C399.706 307.471 400.856 308.295 402.173 308.66C408.119 310.549 414.309 311.514 420.537 311.524C426.751 311.524 432.919 310.569 438.807 308.66C440.294 308.217 441.547 307.188 442.292 305.8C443.037 304.413 443.212 302.78 442.778 301.261C442.344 299.741 441.338 298.46 439.98 297.699C438.621 296.939 437.023 296.76 435.536 297.203C430.667 298.771 425.594 299.576 420.49 299.59C415.397 299.59 410.303 298.778 405.444 297.203C404.689 296.963 403.894 296.882 403.108 296.964V296.964ZM308.393 299.638C307.27 299.642 306.171 299.977 305.229 300.604C304.287 301.23 303.542 302.121 303.083 303.169C302.624 304.217 302.471 305.378 302.643 306.513C302.814 307.648 303.302 308.708 304.048 309.567C306.863 312.82 309.008 316.619 310.356 320.737C310.717 321.817 311.374 322.769 312.249 323.479C313.124 324.189 314.18 324.628 315.292 324.744C316.403 324.859 317.524 324.647 318.521 324.131C319.518 323.615 320.349 322.818 320.916 321.835C321.851 320.259 321.944 318.398 321.383 316.775C319.551 311.275 316.678 306.198 312.926 301.833C312.378 301.146 311.686 300.593 310.902 300.213C310.118 299.833 309.261 299.637 308.393 299.638V299.638ZM390.398 312.335C389.053 312.398 387.77 312.933 386.767 313.85C385.763 314.768 385.101 316.012 384.892 317.371C384.683 318.73 384.941 320.121 385.62 321.308C386.3 322.496 387.361 323.407 388.622 323.887C398.704 328.317 409.562 330.607 420.537 330.618C431.527 330.614 442.401 328.323 452.497 323.887C453.209 323.593 453.857 323.158 454.404 322.607C454.952 322.057 455.387 321.402 455.687 320.679C455.986 319.957 456.143 319.181 456.149 318.396C456.155 317.612 456.01 316.834 455.721 316.106C455.433 315.379 455.007 314.717 454.468 314.158C453.93 313.599 453.288 313.154 452.581 312.848C451.874 312.542 451.114 312.382 450.346 312.376C449.578 312.37 448.817 312.518 448.105 312.813C439.406 316.678 430.023 318.677 420.537 318.684C411.098 318.684 401.659 316.679 393.015 312.813C392.19 312.452 391.295 312.289 390.398 312.335V312.335ZM295.59 313.815C294.517 313.819 293.466 314.125 292.552 314.7C291.638 315.274 290.897 316.094 290.409 317.071C289.922 318.047 289.707 319.142 289.788 320.235C289.87 321.328 290.244 322.377 290.871 323.267C291.363 323.987 291.786 324.755 292.133 325.558C292.566 326.571 293.267 327.441 294.157 328.071C295.046 328.7 296.089 329.065 297.17 329.125C298.251 329.184 299.326 328.936 300.277 328.407C301.227 327.878 302.015 327.09 302.553 326.131C303.534 324.317 303.534 322.217 302.74 320.498C302.082 319.092 301.3 317.749 300.403 316.488C299.876 315.675 299.162 315.006 298.323 314.54C297.484 314.073 296.545 313.825 295.59 313.815V313.815ZM279.984 324.985C278.501 325.095 277.114 325.778 276.107 326.895C275.1 328.013 274.548 329.481 274.564 331L286.245 331C286.254 330.175 286.095 329.357 285.778 328.598C285.462 327.839 284.994 327.155 284.406 326.59C283.817 326.024 283.121 325.59 282.359 325.314C281.598 325.038 280.789 324.926 279.984 324.985V324.985Z" fill="white"/>
<path d="M87.6118 6.87117e-09C87.6118 1.58254 88.2271 3.10026 89.3225 4.21929C90.4179 5.33831 91.9035 5.96697 93.4526 5.96697C95.0016 5.96697 96.4873 5.33831 97.5826 4.21929C98.678 3.10026 99.2933 1.58254 99.2933 6.70151e-09L87.6118 6.87117e-09ZM461.422 1.44206e-09C461.422 1.58254 462.037 3.10026 463.133 4.21929C464.228 5.33831 465.714 5.96697 467.263 5.96697C468.812 5.96697 470.297 5.33831 471.393 4.21929C472.488 3.10026 473.104 1.58254 473.104 1.2724e-09L461.422 1.44206e-09ZM327.645 0.334151C313.311 0.212354 299.209 4.02031 286.806 11.3611C274.566 18.6193 264.402 29.0278 257.327 41.5494C250.252 54.0709 246.512 68.2681 246.481 82.7261C246.468 95.5709 249.399 108.24 255.038 119.721C260.677 131.201 268.868 141.174 278.956 148.84C279.56 149.323 280.252 149.679 280.991 149.889C281.73 150.099 282.503 150.157 283.264 150.062C284.026 149.967 284.761 149.719 285.429 149.333C286.097 148.948 286.684 148.431 287.156 147.814C287.629 147.196 287.978 146.49 288.183 145.735C288.388 144.98 288.446 144.19 288.352 143.413C288.259 142.635 288.017 141.883 287.639 141.201C287.262 140.519 286.756 139.919 286.152 139.436C277.461 132.887 270.4 124.342 265.538 114.491C260.676 104.64 258.149 93.7586 258.163 82.7261C258.188 70.3707 261.381 58.2375 267.423 47.5342C273.465 36.8309 282.145 27.9309 292.6 21.7198C301.946 16.1967 312.433 12.999 323.213 12.3853C333.994 11.7716 344.764 13.7593 354.652 18.1873C355.784 18.6967 357.045 18.8259 358.253 18.5564C359.461 18.287 360.554 17.6327 361.375 16.6879C362.196 15.7431 362.703 14.5565 362.821 13.2989C362.94 12.0414 362.665 10.7779 362.035 9.69037C361.346 8.49697 360.273 7.58562 358.998 7.11263C349.107 2.74927 338.464 0.444835 327.691 0.334151L327.645 0.334151ZM46.1656 0.334151C35.3737 0.453573 24.714 2.7744 14.8122 7.16037C14.0123 7.37827 13.2669 7.76739 12.6254 8.30193C11.9839 8.83648 11.4609 9.50424 11.0912 10.2609C10.7214 11.0176 10.5134 11.846 10.4808 12.6911C10.4482 13.5361 10.5919 14.3786 10.9022 15.1627C11.2125 15.9468 11.6824 16.6545 12.2808 17.2389C12.8792 17.8233 13.5924 18.2712 14.373 18.5527C15.1537 18.8342 15.984 18.9429 16.8089 18.8717C17.6338 18.8005 18.4344 18.5509 19.1578 18.1396C29.0402 13.7194 39.8018 11.736 50.5731 12.3496C61.3445 12.9633 71.8235 16.1567 81.1636 21.6721C91.6272 27.8771 100.317 36.7746 106.367 47.4783C112.418 58.182 115.617 70.3183 115.648 82.6784C115.661 93.7109 113.134 104.592 108.272 114.443C103.41 124.294 96.3491 132.839 87.6585 139.389C87.0541 139.871 86.5487 140.471 86.1711 141.153C85.7935 141.835 85.5511 142.587 85.4578 143.365C85.3645 144.143 85.4221 144.932 85.6274 145.687C85.8326 146.442 86.1814 147.149 86.6539 147.766C87.1264 148.384 87.7133 148.9 88.3811 149.286C89.0489 149.671 89.7846 149.919 90.5461 150.014C91.3075 150.11 92.0799 150.051 92.8192 149.841C93.5584 149.632 94.2499 149.275 94.8543 148.792C104.942 141.126 113.133 131.153 118.773 119.673C124.412 108.193 127.342 95.5231 127.329 82.6784C127.274 68.2447 123.523 54.077 116.448 41.5828C109.374 29.0885 99.2236 18.7025 87.0043 11.4566C74.611 4.08241 60.5075 0.241331 46.1656 0.334151V0.334151ZM449.787 1.90943C448.833 1.98051 447.91 2.29016 447.1 2.81112C446.29 3.33209 445.618 4.04841 445.142 4.89707C444.667 5.74574 444.403 6.70074 444.374 7.67807C444.344 8.65539 444.551 9.6251 444.974 10.5019C447.08 15.2281 450.575 19.166 454.974 21.7675C458.706 23.9578 462.935 25.1104 467.239 25.1104C471.544 25.1104 475.773 23.9578 479.505 21.7675C483.921 19.1738 487.434 15.235 489.551 10.5019C490.208 9.06493 490.279 7.42028 489.749 5.92974C489.219 4.4392 488.131 3.22486 486.724 2.55387C485.318 1.88287 483.708 1.81018 482.249 2.35179C480.79 2.89339 479.601 4.00493 478.944 5.44188C477.905 7.71112 476.255 9.63068 474.185 10.9755C472.116 12.3203 469.715 13.0345 467.263 13.0345C464.811 13.0345 462.409 12.3203 460.34 10.9755C458.271 9.63068 456.62 7.71112 455.581 5.44188C455.092 4.31307 454.272 3.36713 453.234 2.73446C452.196 2.10179 450.992 1.81354 449.787 1.90943V1.90943ZM392.547 2.57773C391.73 2.63246 390.934 2.86213 390.209 3.25182C389.484 3.64151 388.848 4.18252 388.341 4.83973C387.835 5.49694 387.469 6.25566 387.268 7.06665C387.067 7.87763 387.035 8.72276 387.174 9.54716C388.616 22.3077 392.964 34.5457 399.87 45.2806C406.775 56.0155 416.045 64.9489 426.938 71.365C439.199 78.5689 453.095 82.3603 467.239 82.3603C481.383 82.3603 495.28 78.5689 507.541 71.365C518.434 64.9489 527.704 56.0155 534.609 45.2806C541.514 34.5457 545.862 22.3077 547.305 9.54716C547.468 8.74804 547.47 7.92315 547.309 7.12353C547.147 6.3239 546.827 5.56655 546.368 4.89833C545.909 4.23012 545.321 3.66526 544.64 3.23869C543.958 2.81213 543.198 2.53294 542.407 2.4184C541.616 2.30387 540.81 2.35641 540.04 2.5728C539.269 2.78918 538.55 3.1648 537.927 3.6764C537.305 4.18801 536.791 4.82472 536.419 5.54715C536.047 6.26958 535.824 7.06235 535.764 7.87641C534.561 18.8405 530.851 29.3619 524.933 38.5911C519.016 47.8204 511.058 55.4988 501.7 61.0063C491.215 67.1629 479.333 70.4028 467.239 70.4028C455.146 70.4028 443.264 67.1629 432.779 61.0063C423.43 55.4932 415.48 47.8124 409.572 38.5835C403.663 29.3546 399.96 18.8361 398.762 7.87641C398.586 6.35279 397.842 4.95714 396.684 3.97932C395.527 3.0015 394.045 2.51665 392.547 2.62547L392.547 2.57773ZM431.377 6.11018C430.463 6.17387 429.577 6.45628 428.789 6.93459C428.002 7.41291 427.336 8.07372 426.844 8.86364C426.353 9.65356 426.051 10.5504 425.962 11.4818C425.872 12.4132 425.999 13.353 426.331 14.2253C429.702 24.3416 436.561 32.8592 445.629 38.1886C452.204 42.0501 459.655 44.0823 467.239 44.0823C474.824 44.0823 482.275 42.0501 488.85 38.1886C497.935 32.8359 504.796 24.2817 508.148 14.1298C508.475 13.3776 508.647 12.5644 508.652 11.7413C508.656 10.9182 508.494 10.103 508.176 9.34701C507.857 8.59099 507.389 7.91049 506.8 7.34829C506.212 6.78609 505.516 6.35436 504.756 6.08024C503.996 5.80612 503.189 5.69554 502.386 5.75545C501.582 5.81536 500.799 6.04447 500.087 6.42837C499.374 6.81227 498.747 7.34266 498.244 7.98618C497.742 8.62971 497.375 9.37246 497.168 10.1677C494.724 17.6274 489.686 23.9119 483.01 27.83C478.212 30.6487 472.774 32.1321 467.239 32.1321C461.705 32.1321 456.267 30.6487 451.469 27.83C444.793 23.9119 439.755 17.6274 437.311 10.1677C436.909 8.90718 436.107 7.81935 435.033 7.07596C433.958 6.33258 432.672 5.97598 431.377 6.06245L431.377 6.11018ZM412.126 6.49207C411.267 6.55367 410.432 6.80858 409.68 7.23854C408.929 7.6685 408.28 8.26288 407.78 8.97909C407.28 9.6953 406.941 10.5156 406.787 11.3813C406.634 12.247 406.67 13.1367 406.892 13.9866C408.77 22.4992 412.356 30.5214 417.423 37.5464C422.49 44.5714 428.928 50.4465 436.33 54.8007C445.744 60.32 456.409 63.2241 467.263 63.2241C478.117 63.2241 488.782 60.32 498.196 54.8007C505.598 50.4465 512.036 44.5714 517.103 37.5464C522.169 30.5214 525.755 22.4992 527.633 13.9866C528.005 12.4484 527.763 10.8223 526.962 9.466C526.16 8.10974 524.863 7.13442 523.358 6.75461C521.852 6.37481 520.26 6.62161 518.933 7.44074C517.605 8.25986 516.65 9.58421 516.279 11.1224C514.775 18.0691 511.871 24.6196 507.752 30.3563C503.633 36.093 498.389 40.8902 492.355 44.442C484.714 48.932 476.054 51.295 467.239 51.295C458.425 51.295 449.765 48.932 442.124 44.442C436.095 40.8954 430.854 36.1057 426.736 30.3775C422.617 24.6494 419.71 18.1083 418.2 11.1702C417.902 9.77771 417.125 8.54045 416.011 7.68236C414.896 6.82426 413.518 6.40202 412.126 6.49207V6.49207ZM558.379 15.2755C557.145 15.2719 555.942 15.6677 554.941 16.4061C553.941 17.1445 553.196 18.1875 552.812 19.3856C552.428 20.5837 552.425 21.8752 552.804 23.075C553.183 24.2747 553.924 25.321 554.921 26.0637C556.931 27.5913 558.893 29.2143 560.715 30.9805L560.715 15.7528C560.014 15.4187 559.22 15.2277 558.379 15.2277L558.379 15.2755ZM189.241 15.2755C187.84 15.2755 186.531 15.7528 185.503 16.6598C175.422 24.3216 167.234 34.2865 161.596 45.758C155.957 57.2295 153.023 69.8895 153.029 82.7261C153.055 97.1795 156.787 111.374 163.854 123.895C170.921 136.416 181.076 146.827 193.307 154.091C204.182 160.524 216.381 164.263 228.926 165.009C241.471 165.755 254.013 163.487 265.545 158.387C266.257 158.093 266.905 157.658 267.453 157.107C268 156.557 268.436 155.902 268.735 155.179C269.034 154.457 269.191 153.681 269.197 152.896C269.203 152.112 269.058 151.334 268.77 150.606C268.481 149.879 268.055 149.217 267.517 148.658C266.978 148.099 266.336 147.654 265.629 147.348C264.922 147.042 264.163 146.882 263.395 146.876C262.627 146.87 261.865 147.018 261.153 147.313C251.267 151.726 240.504 153.701 229.732 153.079C218.961 152.457 208.484 149.255 199.147 143.732C188.692 137.521 180.012 128.621 173.97 117.918C167.928 107.215 164.736 95.0816 164.71 82.7261C164.704 71.7017 167.234 60.8301 172.096 50.9878C176.957 41.1456 184.015 32.6081 192.699 26.0637C193.7 25.3186 194.442 24.268 194.82 23.0636C195.198 21.8591 195.192 20.5631 194.802 19.3627C194.412 18.1622 193.659 17.1194 192.651 16.3848C191.643 15.6501 190.433 15.2617 189.195 15.2755L189.241 15.2755ZM2.29501e-10 15.8005L4.50664e-10 31.0283C7.00892 37.6203 12.6009 45.628 16.4216 54.5438C20.2423 63.4595 22.2083 73.0889 22.195 82.8216C22.195 102.632 13.9244 121.392 1.95513e-09 134.615L2.17837e-09 149.986C10.4591 142.341 18.9865 132.262 24.8772 120.583C30.768 108.904 33.8528 95.96 33.8766 82.8216C33.8894 69.9769 30.9591 57.3074 25.32 45.827C19.6809 34.3466 11.4897 24.3741 1.40179 16.7075C0.976264 16.3554 0.50438 16.0661 2.30194e-10 15.8483L2.29501e-10 15.8005ZM326.944 19.4762C316.115 19.4717 305.478 22.3862 296.104 27.9254C286.712 33.504 278.915 41.4986 273.488 51.1133C268.06 60.728 265.193 71.6274 265.172 82.7261C265.162 91.4494 266.922 100.08 270.34 108.074C273.758 116.068 278.76 123.252 285.03 129.173C285.847 130 286.884 130.563 288.013 130.79C289.141 131.017 290.31 130.899 291.373 130.45C292.435 130.002 293.345 129.243 293.987 128.268C294.629 127.294 294.976 126.147 294.983 124.972C294.983 123.206 294.282 121.631 293.114 120.581C287.978 115.771 283.879 109.921 281.079 103.404C278.28 96.886 276.84 89.8438 276.853 82.7261C276.874 73.7253 279.201 64.8868 283.604 57.09C288.006 49.2931 294.329 42.8095 301.945 38.2841C307.966 34.7144 314.65 32.4673 321.569 31.6865C328.489 30.9056 335.491 31.6082 342.13 33.7492C343.617 34.1923 345.215 34.0138 346.574 33.2528C347.932 32.4919 348.939 31.2109 349.372 29.6917C349.806 28.1724 349.631 26.5394 348.887 25.1518C348.142 23.7642 346.888 22.7357 345.401 22.2926C339.425 20.3939 333.202 19.4283 326.944 19.4285L326.944 19.4762ZM46.8665 19.4762C40.6081 19.4761 34.3856 20.4417 28.4096 22.3404C27.6732 22.5598 26.9864 22.9252 26.3883 23.4158C25.7902 23.9063 25.2925 24.5125 24.9237 25.1995C24.5549 25.8866 24.3222 26.6411 24.2388 27.4201C24.1554 28.1991 24.2231 28.9872 24.4378 29.7394C24.6526 30.4917 25.0103 31.1933 25.4905 31.8043C25.9707 32.4154 26.564 32.9238 27.2366 33.3006C27.9091 33.6773 28.6477 33.9151 29.4102 34.0003C30.1726 34.0854 30.9441 34.0163 31.6804 33.7969C38.3157 31.6488 45.3167 30.9383 52.2359 31.711C59.1552 32.4836 65.8406 34.7223 71.865 38.2841C79.4878 42.8136 85.8158 49.3047 90.2183 57.1107C94.6208 64.9166 96.9442 73.7649 96.957 82.7739C96.9634 89.8835 95.521 96.9166 92.7214 103.426C89.9219 109.935 85.8266 115.777 80.6963 120.581C80.0968 121.111 79.6091 121.76 79.263 122.488C78.9169 123.217 78.7197 124.01 78.6832 124.819C78.6468 125.628 78.7719 126.436 79.051 127.194C79.3301 127.952 79.7574 128.644 80.3067 129.228C80.856 129.812 81.516 130.275 82.2463 130.59C82.9767 130.905 83.7621 131.065 84.5549 131.06C85.3476 131.055 86.131 130.885 86.8574 130.56C87.5838 130.236 88.2379 129.764 88.7799 129.173C95.0505 123.252 100.052 116.068 103.47 108.074C106.888 100.08 108.648 91.4494 108.639 82.7261C108.612 71.6227 105.738 60.7203 100.302 51.1051C94.8669 41.49 87.0598 33.498 77.6591 27.9254C68.3179 22.3857 57.7141 19.4552 46.9132 19.4285L46.8665 19.4762ZM551.884 34.5607C550.711 34.5667 549.566 34.9336 548.6 35.6137C547.633 36.2938 546.89 37.2556 546.466 38.3736C546.043 39.4916 545.958 40.7141 546.225 41.8816C546.491 43.0492 547.095 44.1078 547.959 44.9194C553.568 50.1997 557.93 56.7123 560.715 63.966L560.715 41.2437C559.245 39.5203 557.686 37.879 556.043 36.3269C555.498 35.766 554.851 35.3211 554.137 35.0179C553.423 34.7147 552.657 34.5593 551.884 34.5607V34.5607ZM195.69 34.5607C194.101 34.5607 192.606 35.229 191.578 36.3269C185.313 42.2425 180.314 49.4187 176.897 57.404C173.479 65.3893 171.716 74.0109 171.719 82.7261C171.733 93.833 174.596 104.742 180.023 114.366C185.451 123.99 193.253 131.992 202.652 137.575C210.04 141.948 218.236 144.707 226.721 145.677C235.207 146.646 243.797 145.806 251.948 143.207C253.077 142.91 254.092 142.274 254.864 141.382C255.636 140.49 256.129 139.382 256.28 138.202C256.431 137.021 256.232 135.821 255.71 134.757C255.188 133.692 254.366 132.812 253.35 132.228C252.646 131.823 251.867 131.571 251.063 131.489C250.258 131.406 249.446 131.496 248.677 131.751C242.039 133.892 235.036 134.594 228.117 133.814C221.197 133.033 214.514 130.786 208.493 127.216C200.87 122.686 194.542 116.195 190.139 108.389C185.737 100.583 183.413 91.7351 183.401 82.7261C183.394 75.6165 184.837 68.5834 187.636 62.0744C190.436 55.5655 194.531 49.7232 199.661 44.9194C200.528 44.105 201.133 43.0421 201.398 41.87C201.663 40.6979 201.575 39.4714 201.146 38.3514C200.716 37.2313 199.966 36.27 198.992 35.5936C198.018 34.9171 196.867 34.5571 195.69 34.5607V34.5607ZM327.925 38.5705C320.059 38.4098 312.302 40.4572 305.496 44.4898C298.938 48.3803 293.49 53.9567 289.695 60.6646C285.899 67.3725 283.889 74.9783 283.862 82.7261C283.862 93.8963 287.881 104.112 294.562 111.845C295.045 112.486 295.651 113.02 296.342 113.414C297.033 113.809 297.795 114.055 298.582 114.14C299.37 114.224 300.165 114.144 300.921 113.904C301.677 113.665 302.378 113.27 302.98 112.746C303.583 112.221 304.074 111.577 304.426 110.852C304.777 110.127 304.98 109.337 305.023 108.53C305.066 107.722 304.948 106.914 304.676 106.155C304.404 105.395 303.984 104.7 303.44 104.112C298.314 98.2202 295.487 90.6089 295.497 82.7261C295.497 71.2695 301.571 60.5767 311.29 54.8484C317.965 50.89 325.833 49.5815 333.392 51.1728C334.147 51.3138 334.921 51.3016 335.671 51.1369C336.422 50.9721 337.133 50.658 337.764 50.2125C338.395 49.767 338.934 49.1989 339.351 48.5405C339.767 47.8821 340.053 47.1464 340.191 46.3753C340.329 45.6043 340.317 44.813 340.156 44.0466C339.994 43.2803 339.687 42.5539 339.251 41.909C338.815 41.264 338.259 40.7131 337.614 40.2877C336.97 39.8623 336.249 39.5708 335.495 39.4298C333.001 38.9144 330.468 38.6268 327.925 38.5705V38.5705ZM45.8385 38.5705C43.3153 38.6183 40.792 38.9047 38.3155 39.4298C37.5608 39.5708 36.8406 39.8623 36.1962 40.2877C35.5517 40.7131 34.9956 41.264 34.5595 41.909C34.1234 42.5539 33.816 43.2803 33.6547 44.0466C33.4934 44.813 33.4815 45.6043 33.6196 46.3753C33.7576 47.1464 34.043 47.8821 34.4594 48.5405C34.8758 49.1989 35.415 49.767 36.0463 50.2125C36.6776 50.658 37.3887 50.9721 38.1388 51.1369C38.8889 51.3016 39.6635 51.3138 40.4182 51.1728C47.9623 49.5937 55.8113 50.9018 62.473 54.8484C67.2655 57.6863 71.2459 61.7583 74.0172 66.6582C76.7884 71.5582 78.2535 77.1148 78.2665 82.7739C78.2665 90.9367 75.276 98.4312 70.3231 104.16C69.5768 105.018 69.0888 106.078 68.9177 107.213C68.7465 108.348 68.8995 109.509 69.3583 110.557C69.817 111.605 70.5621 112.496 71.504 113.122C72.4459 113.749 73.5447 114.084 74.6686 114.089C76.5376 114.089 78.1731 113.229 79.201 111.845C86.1349 103.8 89.9563 93.4456 89.9481 82.7261C89.9216 74.9783 87.9107 67.3725 84.1154 60.6646C80.32 53.9567 74.8724 48.3803 68.3138 44.4898C61.5086 40.4572 53.7507 38.4098 45.8852 38.5705L45.8385 38.5705ZM5.9903e-10 41.2437L9.27655e-10 63.8705C4.69448 75.9835 4.69448 89.4688 1.47537e-09 101.582L1.80468e-09 124.256C9.78238 112.727 15.1733 97.984 15.186 82.7261C15.1929 67.4934 9.79804 52.7737 5.99724e-10 41.2915L5.9903e-10 41.2437ZM541.931 51.4115C540.808 51.4157 539.709 51.7512 538.767 52.3776C537.825 53.0039 537.08 53.8946 536.621 54.9428C536.162 55.991 536.009 57.1521 536.18 58.2869C536.352 59.4217 536.84 60.482 537.586 61.3405C542.712 67.232 545.539 74.8434 545.529 82.7261C545.529 94.1827 539.455 104.923 529.736 110.652C523.074 114.598 515.225 115.906 507.681 114.327C506.926 114.183 506.151 114.192 505.4 114.354C504.648 114.516 503.936 114.827 503.302 115.271C502.669 115.714 502.127 116.28 501.708 116.937C501.289 117.595 501 118.33 500.859 119.101C500.718 119.872 500.727 120.664 500.885 121.431C501.044 122.199 501.349 122.927 501.782 123.574C502.216 124.221 502.771 124.775 503.414 125.203C504.057 125.631 504.777 125.926 505.532 126.07C515.484 128.075 526.138 126.548 535.577 121.01C542.142 117.116 547.594 111.532 551.39 104.815C555.186 98.0978 557.193 90.4821 557.211 82.7261C557.211 71.6037 553.146 61.3882 546.464 53.6073C545.92 52.9265 545.237 52.3767 544.461 51.9972C543.686 51.6176 542.838 51.4176 541.978 51.4115L541.931 51.4115ZM205.642 51.4115C203.82 51.4115 202.185 52.2707 201.157 53.6073C194.223 61.6527 190.401 72.0067 190.41 82.7261C190.423 90.4774 192.423 98.09 196.21 104.807C199.998 111.523 205.44 117.11 211.997 121.01C221.072 126.385 231.758 128.185 242.042 126.07C242.797 125.929 243.517 125.638 244.162 125.212C244.806 124.787 245.362 124.236 245.798 123.591C246.234 122.946 246.542 122.22 246.703 121.453C246.864 120.687 246.876 119.896 246.738 119.125C246.6 118.354 246.315 117.618 245.898 116.96C245.482 116.301 244.943 115.733 244.311 115.287C243.68 114.842 242.969 114.528 242.219 114.363C241.469 114.198 240.694 114.186 239.939 114.327C232.38 115.918 224.513 114.61 217.838 110.652C213.054 107.808 209.083 103.733 206.32 98.8336C203.557 93.934 202.099 88.3805 202.091 82.7261C202.091 74.5633 205.082 67.0688 210.035 61.3405C210.784 60.4789 211.272 59.4143 211.442 58.2751C211.611 57.136 211.454 55.971 210.99 54.921C210.525 53.871 209.773 52.9809 208.824 52.3581C207.875 51.7353 206.77 51.4065 205.642 51.4115V51.4115ZM327.551 57.6648C323.206 57.5694 318.813 58.6196 314.842 61.0063C311.115 63.2153 308.02 66.3827 305.864 70.1933C303.708 74.0039 302.566 78.3248 302.553 82.7261C302.533 87.9224 304.101 92.9954 307.038 97.2378C307.924 98.5418 309.281 99.4328 310.81 99.7148C312.34 99.9968 313.916 99.6467 315.192 98.7415C316.469 97.8363 317.341 96.4501 317.617 94.888C317.893 93.3258 317.55 91.7156 316.664 90.4116C315.611 88.9204 314.875 87.2206 314.504 85.4215C314.133 83.6224 314.134 81.7639 314.509 79.9654C314.883 78.1669 315.621 76.4683 316.676 74.9789C317.732 73.4895 319.08 72.2422 320.636 71.3173C322.97 69.946 325.668 69.3614 328.346 69.6465C329.116 69.7284 329.895 69.6528 330.636 69.4243C331.378 69.1958 332.068 68.8188 332.665 68.3154C333.263 67.8119 333.757 67.192 334.118 66.4918C334.479 65.7916 334.7 65.025 334.768 64.2367C334.836 63.4484 334.75 62.6541 334.515 61.9001C334.28 61.1461 333.9 60.4474 333.398 59.8447C332.896 59.242 332.282 58.7473 331.591 58.3894C330.9 58.0316 330.146 57.8177 329.374 57.7603C328.752 57.7093 328.128 57.6775 327.504 57.6648L327.551 57.6648ZM46.259 57.6648L44.39 57.7603C43.6229 57.8293 42.8767 58.0519 42.1939 58.4155C41.5111 58.779 40.9051 59.2765 40.4104 59.8793C39.4115 61.0968 38.9268 62.6698 39.0632 64.2524C39.1995 65.8349 39.9456 67.2973 41.1373 68.3179C42.3291 69.3384 43.8689 69.8335 45.4179 69.6943C47.8686 69.4715 50.3304 69.9695 52.513 71.1296C54.6956 72.2896 56.5079 74.0632 57.7359 76.2412C58.964 78.4192 59.5566 80.9106 59.4438 83.4214C59.3311 85.9322 58.5176 88.3577 57.0995 90.4116C56.6608 91.0573 56.3508 91.7849 56.1873 92.553C56.0239 93.321 56.0101 94.1145 56.1468 94.888C56.4228 96.4501 57.295 97.8363 58.5714 98.7415C59.8478 99.6467 61.424 99.9968 62.9531 99.7148C64.4822 99.4328 65.8391 98.5418 66.7251 97.2378C69.6788 93.0011 71.2634 87.9276 71.2576 82.7261C71.2451 78.3366 70.1086 74.0268 67.961 70.2249C65.8133 66.423 62.7293 63.2613 59.0153 61.0541C55.1572 58.7749 50.7615 57.6193 46.3057 57.7126L46.259 57.6648ZM529.128 65.589C528.055 65.5931 527.004 65.8991 526.09 66.4734C525.176 67.0477 524.435 67.8681 523.947 68.8445C523.46 69.821 523.245 70.9158 523.326 72.0089C523.408 73.1019 523.782 74.1508 524.409 75.0407C525.462 76.5318 526.198 78.2316 526.569 80.0307C526.94 81.8298 526.939 83.6884 526.565 85.4869C526.19 87.2854 525.452 88.9839 524.397 90.4734C523.341 91.9628 521.993 93.2101 520.437 94.135C518.09 95.5162 515.374 96.1012 512.681 95.8057C511.914 95.7399 511.141 95.8291 510.408 96.0681C509.675 96.3072 508.995 96.6915 508.407 97.199C507.22 98.224 506.479 99.689 506.349 101.271C506.219 102.854 506.71 104.425 507.713 105.638C508.716 106.851 510.15 107.607 511.699 107.74C516.606 108.169 521.652 107.167 526.231 104.446C529.958 102.237 533.053 99.0696 535.209 95.259C537.365 91.4484 538.507 87.1275 538.52 82.7261C538.526 77.5247 536.942 72.4512 533.988 68.2145C533.451 67.403 532.727 66.739 531.879 66.2811C531.032 65.8233 530.087 65.5856 529.128 65.589ZM218.445 65.589C216.436 65.589 214.707 66.6392 213.586 68.2145C210.649 72.4569 209.081 77.5299 209.1 82.7261C209.1 91.6527 213.773 100.006 221.342 104.446C225.751 107.057 230.849 108.192 235.921 107.692C236.694 107.635 237.447 107.421 238.138 107.063C238.829 106.705 239.443 106.21 239.945 105.608C240.447 105.005 240.827 104.306 241.062 103.552C241.297 102.798 241.383 102.004 241.315 101.216C241.247 100.427 241.026 99.6607 240.665 98.9605C240.304 98.2602 239.811 97.6404 239.213 97.1369C238.615 96.6335 237.925 96.2565 237.184 96.028C236.442 95.7994 235.663 95.7239 234.893 95.8057C232.442 96.0285 229.981 95.5305 227.798 94.3704C225.615 93.2104 223.803 91.4368 222.575 89.2588C221.347 87.0808 220.754 84.5895 220.867 82.0786C220.98 79.5678 221.793 77.1423 223.211 75.0884C223.854 74.1953 224.24 73.1371 224.326 72.0324C224.413 70.9277 224.197 69.8201 223.702 68.8339C223.207 67.8477 222.453 67.0217 221.525 66.4486C220.596 65.8754 219.53 65.5778 218.445 65.589V65.589ZM233.631 76.7592C232.082 76.7592 230.597 77.3878 229.501 78.5069C228.406 79.6259 227.791 81.1436 227.791 82.7261C227.791 84.3087 228.406 85.8264 229.501 86.9454C230.597 88.0645 232.082 88.6931 233.631 88.6931C235.18 88.6931 236.666 88.0645 237.761 86.9454C238.857 85.8264 239.472 84.3087 239.472 82.7261C239.472 81.1436 238.857 79.6259 237.761 78.5069C236.666 77.3878 235.18 76.7592 233.631 76.7592ZM327.084 76.7592C325.535 76.7592 324.049 77.3878 322.954 78.5069C321.859 79.6259 321.243 81.1436 321.243 82.7261C321.243 84.3087 321.859 85.8264 322.954 86.9454C324.049 88.0645 325.535 88.6931 327.084 88.6931C328.633 88.6931 330.119 88.0645 331.214 86.9454C332.309 85.8264 332.925 84.3087 332.925 82.7261C332.925 81.1436 332.309 79.6259 331.214 78.5069C330.119 77.3878 328.633 76.7592 327.084 76.7592ZM46.3057 76.7592C45.5387 76.8156 44.7901 77.0258 44.1026 77.3778C43.4151 77.7298 42.8022 78.2167 42.2989 78.8106C41.7955 79.4046 41.4117 80.0941 41.1692 80.8396C40.9267 81.5851 40.8303 82.3722 40.8855 83.1558C40.9407 83.9394 41.1465 84.7042 41.491 85.4065C41.8356 86.1089 42.3122 86.735 42.8936 87.2492C43.475 87.7634 44.1499 88.1556 44.8796 88.4033C45.6094 88.6511 46.3798 88.7495 47.1468 88.6931C48.6959 88.5792 50.1372 87.8412 51.1537 86.6416C52.1702 85.442 52.6786 83.8791 52.5671 82.2965C52.4555 80.714 51.7332 79.2415 50.559 78.2031C49.3847 77.1646 47.8548 76.6452 46.3057 76.7592ZM514.41 76.7592C513.643 76.7027 512.872 76.8012 512.142 77.049C511.413 77.2967 510.738 77.6889 510.156 78.2031C509.575 78.7172 509.098 79.3434 508.754 80.0458C508.409 80.7481 508.204 81.5129 508.148 82.2965C508.093 83.0801 508.189 83.8671 508.432 84.6127C508.674 85.3582 509.058 86.0477 509.562 86.6416C510.065 87.2356 510.678 87.7225 511.365 88.0745C512.053 88.4265 512.802 88.6367 513.569 88.6931C515.118 88.8071 516.648 88.2877 517.822 87.2492C518.996 86.2108 519.718 84.7383 519.83 83.1558C519.941 81.5732 519.433 80.0102 518.417 78.8106C517.4 77.611 515.959 76.8731 514.41 76.7592V76.7592ZM373.81 83.108C354.048 83.0914 334.971 90.5007 320.211 103.925C305.451 117.349 296.039 135.85 293.768 155.905C293.572 157.027 293.694 158.182 294.12 159.235C294.546 160.288 295.258 161.194 296.172 161.847C297.086 162.499 298.163 162.871 299.278 162.918C300.392 162.965 301.496 162.684 302.459 162.111C303.249 161.636 303.919 160.979 304.414 160.191C304.909 159.403 305.216 158.507 305.309 157.576C306.507 146.616 310.21 136.098 316.119 126.869C322.028 117.64 329.977 109.959 339.326 104.446C349.811 98.2894 361.693 95.0495 373.787 95.0495C385.88 95.0495 397.762 98.2894 408.248 104.446C417.596 109.959 425.546 117.64 431.455 126.869C437.364 136.098 441.066 146.616 442.264 157.576C442.481 159.146 443.3 160.563 444.539 161.517C445.779 162.47 447.339 162.881 448.876 162.66C450.413 162.438 451.8 161.602 452.734 160.335C453.667 159.069 454.069 157.475 453.852 155.905C451.581 135.85 442.17 117.349 427.41 103.925C412.649 90.5007 393.572 83.0914 373.81 83.108V83.108ZM560.715 101.486C556.554 112.312 548.929 121.381 539.081 127.216C533.057 130.778 526.371 133.016 519.452 133.789C512.533 134.562 505.532 133.851 498.896 131.703C497.775 131.35 496.575 131.351 495.454 131.705C494.333 132.059 493.342 132.75 492.61 133.688C491.879 134.626 491.441 135.767 491.354 136.962C491.267 138.158 491.534 139.353 492.121 140.391C492.502 141.077 493.011 141.679 493.621 142.162C494.23 142.646 494.928 143.001 495.672 143.207C507.147 146.859 519.416 147.006 530.971 143.631C542.526 140.255 552.865 133.505 560.715 124.209L560.715 101.486V101.486ZM373.81 102.202C359.764 102.178 346.13 107.046 335.155 116.001C324.181 124.957 316.521 137.466 313.44 151.466C313.15 152.602 313.196 153.8 313.57 154.911C313.944 156.021 314.631 156.994 315.544 157.707C316.456 158.421 317.555 158.843 318.702 158.922C319.849 159 320.993 158.731 321.991 158.149C322.69 157.744 323.3 157.195 323.783 156.538C324.265 155.881 324.61 155.129 324.794 154.33C326.298 147.383 329.202 140.833 333.321 135.096C337.44 129.359 342.684 124.562 348.718 121.01C356.353 116.529 365.005 114.171 373.81 114.171C382.616 114.171 391.267 116.529 398.902 121.01C404.936 124.562 410.18 129.359 414.299 135.096C418.418 140.833 421.322 147.383 422.826 154.33C423.086 155.498 423.685 156.56 424.544 157.376C425.403 158.192 426.483 158.725 427.643 158.905C428.802 159.085 429.988 158.905 431.046 158.387C432.104 157.869 432.984 157.037 433.573 156.001C434.414 154.569 434.554 152.945 434.181 151.466C431.109 137.457 423.453 124.937 412.478 115.972C401.502 107.007 387.863 102.133 373.81 102.155L373.81 102.202ZM373.81 121.297C364.772 121.275 355.956 124.159 348.61 129.539C341.264 134.919 335.76 142.523 332.878 151.275C332.62 152.014 332.508 152.799 332.547 153.583C332.586 154.367 332.775 155.136 333.105 155.845C333.435 156.554 333.898 157.19 334.469 157.716C335.039 158.243 335.705 158.649 336.429 158.912C337.153 159.176 337.921 159.291 338.689 159.251C339.456 159.211 340.209 159.017 340.903 158.68C341.597 158.343 342.219 157.87 342.735 157.288C343.25 156.705 343.648 156.024 343.905 155.285C346.327 147.815 351.349 141.513 358.017 137.575C362.815 134.756 368.252 133.272 373.787 133.272C379.321 133.272 384.759 134.756 389.557 137.575C396.234 141.493 401.271 147.777 403.715 155.237C404.229 156.731 405.303 157.955 406.701 158.64C408.099 159.324 409.706 159.414 411.168 158.889C412.63 158.363 413.828 157.266 414.499 155.838C415.169 154.41 415.257 152.769 414.742 151.275C411.868 142.514 406.368 134.9 399.022 129.51C391.675 124.121 382.855 121.231 373.81 121.249L373.81 121.297ZM560.715 134.519C550.892 143.805 538.632 149.96 525.435 152.233C512.239 154.505 498.68 152.795 486.421 147.313C485.294 146.815 484.043 146.693 482.845 146.962C481.647 147.232 480.562 147.881 479.745 148.816C478.928 149.751 478.42 150.925 478.293 152.172C478.166 153.419 478.427 154.675 479.038 155.762C479.718 156.973 480.793 157.902 482.075 158.387C494.789 164.012 508.71 166.185 522.488 164.697C536.266 163.208 549.434 158.108 560.715 149.89L560.715 134.519ZM373.81 140.439C369.122 140.436 364.53 141.806 360.58 144.386C356.63 146.966 353.487 150.649 351.522 154.998C351.194 155.707 351.005 156.474 350.967 157.257C350.929 158.04 351.042 158.822 351.301 159.56C351.559 160.298 351.957 160.977 352.472 161.558C352.987 162.139 353.609 162.611 354.302 162.946C354.995 163.282 355.747 163.474 356.513 163.513C357.279 163.552 358.045 163.436 358.768 163.172C359.49 162.908 360.155 162.502 360.723 161.976C361.292 161.45 361.754 160.814 362.082 160.106C363.157 157.671 364.979 155.523 367.362 154.091C368.923 153.176 370.654 152.605 372.444 152.414C374.234 152.224 376.043 152.418 377.755 152.985C379.467 153.551 381.044 154.477 382.384 155.704C383.725 156.93 384.799 158.43 385.539 160.106C385.986 161.101 386.694 161.952 387.584 162.564C388.474 163.176 389.511 163.525 390.583 163.575C391.654 163.624 392.718 163.371 393.658 162.843C394.598 162.316 395.378 161.534 395.912 160.583C396.893 158.817 396.94 156.764 396.099 154.998C394.143 150.642 391.002 146.953 387.05 144.371C383.097 141.789 378.501 140.424 373.81 140.439ZM187.326 159.533C186.559 159.477 185.788 159.575 185.058 159.823C184.329 160.071 183.654 160.463 183.072 160.977C182.491 161.491 182.014 162.117 181.67 162.82C181.325 163.522 181.12 164.287 181.064 165.07C181.009 165.854 181.106 166.641 181.348 167.387C181.591 168.132 181.974 168.822 182.478 169.415C182.981 170.009 183.594 170.496 184.281 170.848C184.969 171.2 185.718 171.411 186.485 171.467C188.034 171.581 189.564 171.062 190.738 170.023C191.912 168.985 192.634 167.512 192.746 165.93C192.857 164.347 192.349 162.784 191.333 161.584C190.316 160.385 188.875 159.647 187.326 159.533V159.533ZM373.39 159.533C372.597 159.549 371.815 159.729 371.093 160.063C370.37 160.397 369.722 160.878 369.188 161.477C368.653 162.075 368.243 162.779 367.984 163.544C367.724 164.31 367.619 165.121 367.676 165.929C367.734 166.737 367.951 167.525 368.316 168.244C368.681 168.964 369.185 169.599 369.799 170.113C370.412 170.627 371.121 171.008 371.883 171.232C372.645 171.457 373.444 171.52 374.231 171.419C375.78 171.305 377.221 170.567 378.238 169.368C379.254 168.168 379.763 166.605 379.651 165.023C379.539 163.44 378.817 161.968 377.643 160.929C376.469 159.891 374.939 159.371 373.39 159.485L373.39 159.533ZM326.477 165.834C315.71 165.913 305.067 168.185 295.17 172.517C293.726 173.106 292.57 174.256 291.957 175.716C291.344 177.175 291.323 178.823 291.899 180.298C292.475 181.773 293.602 182.954 295.03 183.58C296.458 184.207 298.072 184.228 299.515 183.64C309.401 179.227 320.165 177.251 330.936 177.873C341.708 178.495 352.185 181.697 361.521 187.22C371.985 193.425 380.675 202.322 386.725 213.026C392.775 223.73 395.975 235.866 396.005 248.226C396.006 259.255 393.469 270.129 388.599 279.971C383.729 289.814 376.662 298.349 367.969 304.889C366.743 305.87 365.947 307.309 365.759 308.889C365.571 310.469 366.004 312.061 366.965 313.314C367.925 314.567 369.334 315.38 370.88 315.572C372.427 315.764 373.985 315.321 375.212 314.34C385.3 306.674 393.491 296.701 399.13 285.221C404.769 273.74 407.7 261.071 407.687 248.226C407.656 233.768 403.916 219.571 396.841 207.049C389.766 194.528 379.602 184.119 367.362 176.861C354.959 169.52 340.856 165.712 326.523 165.834L326.477 165.834ZM47.3337 165.834C30.3709 165.679 13.7976 171.028 2.6304e-09 181.11L2.85364e-09 196.481C9.82288 187.195 22.0838 181.04 35.2803 178.767C48.4767 176.495 62.0354 178.205 74.2948 183.687C75.4265 184.197 76.6872 184.326 77.8953 184.056C79.1035 183.787 80.1968 183.133 81.0177 182.188C81.8386 181.243 82.3448 180.056 82.4634 178.799C82.582 177.541 82.3068 176.278 81.6775 175.19C80.9918 173.994 79.9169 173.082 78.6403 172.613C68.7497 168.249 58.1066 165.945 47.3337 165.834ZM169.429 167.362C168.475 167.433 167.552 167.742 166.742 168.263C165.932 168.784 165.26 169.501 164.785 170.349C164.309 171.198 164.045 172.153 164.016 173.13C163.987 174.108 164.193 175.077 164.617 175.954C166.732 180.689 170.245 184.629 174.663 187.22C178.39 189.401 182.61 190.549 186.905 190.549C191.2 190.549 195.421 189.401 199.147 187.22C203.566 184.629 207.079 180.689 209.194 175.954C209.57 175.24 209.799 174.455 209.868 173.646C209.937 172.838 209.844 172.024 209.595 171.254C209.346 170.484 208.945 169.774 208.418 169.167C207.891 168.561 207.249 168.07 206.53 167.726C205.811 167.381 205.031 167.19 204.237 167.164C203.444 167.138 202.653 167.277 201.914 167.574C201.175 167.871 200.503 168.318 199.939 168.889C199.375 169.46 198.931 170.142 198.633 170.894C197.6 173.177 195.949 175.109 193.875 176.464C191.8 177.818 189.39 178.538 186.928 178.538C184.467 178.538 182.057 177.818 179.982 176.464C177.908 175.109 176.257 173.177 175.224 170.894C174.734 169.765 173.914 168.819 172.876 168.187C171.839 167.554 170.634 167.266 169.429 167.362ZM112.19 168.078C111.377 168.139 110.585 168.373 109.866 168.766C109.147 169.158 108.516 169.7 108.014 170.356C107.513 171.013 107.151 171.769 106.953 172.577C106.754 173.385 106.724 174.226 106.863 175.047C108.304 187.802 112.646 200.036 119.543 210.77C126.439 221.504 135.699 230.44 146.58 236.865C158.847 244.078 172.752 247.874 186.905 247.874C201.058 247.874 214.963 244.078 227.23 236.865C238.112 230.44 247.371 221.504 254.267 210.77C261.164 200.036 265.506 187.802 266.947 175.047C267.111 174.248 267.112 173.423 266.951 172.624C266.79 171.824 266.47 171.067 266.011 170.398C265.552 169.73 264.963 169.165 264.282 168.739C263.6 168.312 262.841 168.033 262.049 167.918C261.258 167.804 260.452 167.856 259.682 168.073C258.911 168.289 258.192 168.665 257.57 169.176C256.947 169.688 256.434 170.325 256.061 171.047C255.689 171.77 255.466 172.562 255.406 173.376C254.208 184.336 250.505 194.855 244.596 204.084C238.687 213.312 230.738 220.993 221.389 226.506C211.478 232.373 200.29 235.622 188.84 235.958C177.39 236.295 166.038 233.709 155.813 228.433C145.588 223.158 136.812 215.361 130.28 205.747C123.748 196.134 119.666 185.008 118.404 173.376C118.228 171.853 117.484 170.457 116.327 169.479C115.169 168.502 113.688 168.017 112.19 168.125L112.19 168.078ZM151.066 171.61C150.148 171.667 149.256 171.944 148.463 172.419C147.67 172.895 146.997 173.555 146.501 174.346C146.005 175.137 145.698 176.036 145.606 176.971C145.515 177.906 145.64 178.849 145.973 179.725C149.336 189.885 156.215 198.44 165.318 203.784C171.887 207.637 179.33 209.664 186.905 209.664C194.48 209.664 201.923 207.637 208.493 203.784C217.595 198.44 224.474 189.885 227.837 179.725C228.095 178.986 228.208 178.201 228.169 177.417C228.13 176.633 227.94 175.864 227.61 175.155C227.28 174.446 226.817 173.81 226.247 173.284C225.676 172.757 225.01 172.351 224.286 172.088C223.562 171.824 222.794 171.709 222.027 171.749C221.259 171.789 220.507 171.983 219.813 172.32C219.118 172.657 218.496 173.13 217.981 173.712C217.465 174.295 217.068 174.976 216.81 175.715C214.378 183.167 209.358 189.451 202.699 193.378C197.895 196.205 192.449 197.694 186.905 197.694C181.361 197.694 175.915 196.205 171.112 193.378C164.452 189.451 159.432 183.167 157 175.715C156.598 174.455 155.797 173.367 154.722 172.624C153.647 171.88 152.361 171.524 151.066 171.61V171.61ZM131.768 171.992C130.904 172.052 130.064 172.308 129.308 172.741C128.552 173.174 127.901 173.773 127.4 174.495C126.899 175.217 126.561 176.043 126.412 176.915C126.262 177.787 126.304 178.681 126.535 179.534C128.419 188.038 132.007 196.051 137.074 203.068C142.14 210.084 148.575 215.952 155.972 220.301C165.392 225.829 176.065 228.738 186.928 228.738C197.792 228.738 208.465 225.829 217.885 220.301C225.278 215.942 231.707 210.064 236.766 203.039C241.824 196.015 245.403 187.995 247.275 179.487C247.565 178.35 247.52 177.152 247.145 176.041C246.771 174.931 246.085 173.958 245.172 173.245C244.259 172.531 243.16 172.109 242.013 172.03C240.867 171.952 239.722 172.221 238.725 172.804C238.025 173.209 237.415 173.757 236.933 174.414C236.45 175.071 236.106 175.823 235.921 176.622C234.417 183.569 231.513 190.12 227.394 195.856C223.275 201.593 218.031 206.39 211.997 209.942C204.362 214.423 195.71 216.781 186.905 216.781C178.1 216.781 169.448 214.423 161.813 209.942C155.784 206.395 150.543 201.606 146.425 195.878C142.306 190.149 139.399 183.608 137.889 176.67C137.59 175.269 136.806 174.025 135.682 173.166C134.558 172.307 133.168 171.89 131.768 171.992V171.992ZM469.599 180.728C468.197 180.728 466.889 181.253 465.861 182.112C455.779 189.774 447.592 199.739 441.953 211.21C436.315 222.682 433.381 235.342 433.386 248.178C433.413 262.632 437.145 276.826 444.212 289.347C451.279 301.868 461.433 312.279 473.664 319.543C484.539 325.976 496.739 329.715 509.284 330.461C521.829 331.207 534.371 328.94 545.903 323.84C546.63 323.56 547.296 323.134 547.86 322.588C548.424 322.042 548.876 321.386 549.189 320.659C549.502 319.933 549.67 319.149 549.683 318.355C549.696 317.562 549.554 316.773 549.264 316.036C548.975 315.299 548.545 314.628 547.999 314.063C547.453 313.498 546.802 313.05 546.084 312.746C545.366 312.441 544.596 312.286 543.819 312.289C543.042 312.292 542.273 312.454 541.558 312.765C531.669 317.193 520.899 319.181 510.119 318.567C499.338 317.953 488.851 314.756 479.505 309.232C469.043 303.017 460.358 294.11 454.316 283.397C448.274 272.685 445.085 260.542 445.068 248.178C445.062 237.154 447.592 226.282 452.453 216.44C457.315 206.598 464.373 198.06 473.057 191.516C474.054 190.773 474.795 189.727 475.174 188.527C475.553 187.328 475.55 186.036 475.166 184.838C474.782 183.64 474.037 182.597 473.037 181.858C472.036 181.12 470.833 180.724 469.599 180.728V180.728ZM278.021 180.728C276.775 180.71 275.556 181.1 274.542 181.84C273.528 182.581 272.772 183.634 272.386 184.845C272 186.055 272.003 187.361 272.394 188.57C272.786 189.779 273.546 190.828 274.564 191.564C283.248 198.108 290.305 206.646 295.167 216.488C300.029 226.33 302.559 237.202 302.553 248.226C302.522 260.586 299.323 272.723 293.272 283.426C287.222 294.13 278.532 303.027 268.069 309.232C258.732 314.755 248.255 317.957 237.484 318.579C226.712 319.201 215.949 317.226 206.063 312.813C204.937 312.315 203.686 312.193 202.487 312.462C201.289 312.732 200.204 313.381 199.387 314.316C198.57 315.251 198.062 316.425 197.935 317.672C197.808 318.919 198.069 320.175 198.68 321.262C199.346 322.467 200.404 323.396 201.671 323.887C213.203 328.987 225.745 331.255 238.29 330.509C250.835 329.763 263.034 326.024 273.909 319.591C286.149 312.333 296.313 301.924 303.388 289.403C310.464 276.881 314.203 262.684 314.234 248.226C314.247 235.381 311.317 222.712 305.678 211.232C300.039 199.751 291.847 189.779 281.759 182.112C280.706 181.232 279.382 180.759 278.021 180.775L278.021 180.728ZM560.715 181.062C550.256 188.707 541.729 198.786 535.838 210.465C529.947 222.144 526.863 235.088 526.839 248.226C526.826 261.071 529.756 273.74 535.395 285.221C541.034 296.701 549.226 306.674 559.314 314.34C559.781 314.722 560.248 315.009 560.715 315.199L560.715 300.019C553.709 293.426 548.118 285.418 544.298 276.502C540.477 267.587 538.51 257.958 538.52 248.226C538.52 228.464 546.791 209.656 560.715 196.481L560.715 181.062ZM327.224 184.881C320.966 184.881 314.743 185.846 308.767 187.745C308.031 187.964 307.344 188.33 306.746 188.82C306.148 189.311 305.65 189.917 305.281 190.604C304.537 191.992 304.362 193.625 304.796 195.144C305.229 196.663 306.236 197.944 307.594 198.705C308.952 199.466 310.551 199.645 312.038 199.201C318.677 197.06 325.679 196.358 332.599 197.139C339.518 197.92 346.202 200.167 352.223 203.736C359.837 208.272 366.155 214.766 370.549 222.571C374.944 230.377 377.26 239.222 377.268 248.226C377.274 255.336 375.832 262.369 373.032 268.878C370.233 275.387 366.138 281.229 361.007 286.033C360.408 286.563 359.92 287.212 359.574 287.94C359.228 288.669 359.031 289.462 358.994 290.271C358.958 291.08 359.083 291.888 359.362 292.646C359.641 293.404 360.068 294.096 360.618 294.68C361.167 295.264 361.827 295.728 362.557 296.043C363.288 296.358 364.073 296.517 364.866 296.512C365.659 296.507 366.442 296.337 367.168 296.013C367.895 295.688 368.549 295.216 369.091 294.625C375.364 288.714 380.371 281.54 383.797 273.554C387.223 265.569 388.993 256.945 388.996 248.226C388.978 237.115 386.108 226.202 380.672 216.578C375.236 206.954 367.424 198.954 358.017 193.378C348.657 187.849 338.036 184.935 327.224 184.928L327.224 184.881ZM46.5861 184.928C37.7426 184.932 29.0037 186.882 20.9645 190.646C12.9253 194.411 5.77479 199.901 3.00273e-09 206.744L3.33341e-09 229.514C4.1521 218.67 11.7781 209.584 21.6343 203.736C27.6586 200.175 34.3441 197.936 41.2633 197.163C48.1826 196.391 55.1836 197.101 61.8189 199.249C62.5672 199.509 63.3592 199.61 64.1471 199.548C64.9349 199.485 65.7022 199.26 66.4024 198.886C67.1027 198.512 67.7213 197.997 68.2209 197.371C68.7205 196.746 69.0907 196.023 69.309 195.247C69.5274 194.472 69.5894 193.658 69.4912 192.857C69.393 192.056 69.1368 191.284 68.738 190.587C68.3391 189.89 67.806 189.283 67.1709 188.803C66.5358 188.323 65.8119 187.979 65.043 187.793C59.0669 185.894 52.8445 184.928 46.5861 184.928V184.928ZM476.047 200.013C474.459 200.013 472.963 200.681 471.935 201.779C465.671 207.695 460.672 214.871 457.254 222.856C453.837 230.842 452.074 239.463 452.077 248.178C452.09 259.285 454.954 270.194 460.381 279.818C465.809 289.442 473.611 297.444 483.01 303.027C490.397 307.4 498.593 310.159 507.079 311.129C515.565 312.099 524.155 311.258 532.306 308.66C533.793 308.217 535.047 307.188 535.792 305.8C536.536 304.413 536.711 302.78 536.277 301.261C535.844 299.741 534.837 298.46 533.479 297.699C532.121 296.939 530.522 296.76 529.035 297.203C522.396 299.341 515.394 300.042 508.475 299.261C501.556 298.481 494.872 296.235 488.85 292.668C481.234 288.143 474.911 281.659 470.509 273.862C466.107 266.065 463.779 257.227 463.758 248.226C463.752 241.117 465.194 234.083 467.994 227.574C470.793 221.065 474.889 215.223 480.019 210.419C480.886 209.605 481.491 208.542 481.756 207.37C482.021 206.198 481.933 204.971 481.503 203.851C481.074 202.731 480.323 201.77 479.35 201.094C478.376 200.417 477.225 200.057 476.047 200.061L476.047 200.013ZM271.526 200.013C270.343 200.008 269.185 200.371 268.208 201.054C267.231 201.736 266.48 202.706 266.054 203.834C265.628 204.963 265.548 206.197 265.825 207.373C266.101 208.549 266.721 209.611 267.601 210.419C272.732 215.223 276.827 221.065 279.627 227.574C282.426 234.083 283.869 241.117 283.862 248.226C283.841 257.227 281.514 266.065 277.112 273.862C272.71 281.659 266.386 288.143 258.77 292.668C252.749 296.238 246.065 298.485 239.146 299.266C232.227 300.047 225.224 299.344 218.586 297.203C217.849 296.984 217.078 296.915 216.315 297C215.553 297.085 214.814 297.323 214.142 297.699C213.469 298.076 212.876 298.585 212.396 299.196C211.915 299.807 211.558 300.508 211.343 301.261C211.128 302.013 211.061 302.801 211.144 303.58C211.227 304.359 211.46 305.113 211.829 305.8C212.198 306.488 212.695 307.094 213.293 307.584C213.892 308.075 214.578 308.44 215.315 308.66C223.459 311.251 232.041 312.088 240.518 311.119C248.995 310.149 257.183 307.394 264.564 303.027C273.965 297.454 281.772 289.462 287.208 279.847C292.643 270.232 295.517 259.33 295.544 248.226C295.553 239.503 293.793 230.872 290.375 222.878C286.958 214.884 281.956 207.7 275.685 201.779C275.148 201.222 274.508 200.779 273.802 200.476C273.096 200.172 272.339 200.015 271.573 200.013L271.526 200.013ZM326.196 204.023C323.673 204.071 321.15 204.405 318.673 204.882C317.477 205.071 316.367 205.636 315.498 206.497C314.63 207.359 314.044 208.475 313.824 209.691C313.603 210.908 313.758 212.164 314.267 213.286C314.776 214.409 315.613 215.342 316.664 215.957C317.972 216.721 319.421 216.911 320.776 216.625C328.32 215.046 336.169 216.354 342.831 220.301C347.623 223.139 351.604 227.211 354.375 232.111C357.146 237.01 358.611 242.567 358.624 248.226C358.624 256.437 355.634 263.931 350.681 269.612C349.934 270.47 349.446 271.531 349.275 272.665C349.104 273.8 349.257 274.961 349.716 276.009C350.175 277.058 350.92 277.948 351.862 278.575C352.804 279.201 353.902 279.537 355.026 279.541C356.895 279.541 358.531 278.682 359.559 277.345C366.493 269.3 370.314 258.946 370.306 248.226C370.287 240.47 368.28 232.855 364.485 226.138C360.689 219.421 355.237 213.837 348.672 209.942C341.866 205.909 334.108 203.862 326.243 204.023L326.196 204.023ZM47.6141 204.023C39.7239 203.882 31.9481 205.963 25.1387 210.038C18.587 213.924 13.1437 219.493 9.34876 226.192C5.55381 232.89 3.5391 240.486 3.50447 248.226C3.50447 259.396 7.56966 269.564 14.2515 277.345C15.02 278.286 16.0537 278.963 17.212 279.283C18.3703 279.603 19.597 279.551 20.7253 279.134C21.8536 278.717 22.8287 277.955 23.518 276.951C24.2074 275.948 24.5775 274.752 24.578 273.526C24.578 272.094 24.064 270.662 23.1295 269.612C18.0032 263.72 15.176 256.109 15.186 248.226C15.186 236.77 21.2605 226.029 30.9795 220.301C37.6412 216.354 45.4903 215.046 53.0343 216.625C53.7891 216.766 54.5636 216.754 55.3138 216.589C56.0639 216.424 56.7749 216.11 57.4062 215.665C58.0376 215.219 58.5768 214.651 58.9932 213.993C59.4096 213.334 59.6949 212.599 59.833 211.828C59.9711 211.057 59.9591 210.265 59.7978 209.499C59.6366 208.733 59.3291 208.006 58.8931 207.361C58.457 206.716 57.9009 206.165 57.2564 205.74C56.6119 205.315 55.8918 205.023 55.137 204.882C52.6594 204.367 50.1418 204.08 47.6141 204.023V204.023ZM560.715 206.744C550.958 218.251 545.569 232.954 545.529 248.178C545.5 263.444 550.896 278.201 560.715 289.709L560.715 267.082C556.038 254.982 556.038 241.518 560.715 229.418L560.715 206.696L560.715 206.744ZM486 216.864C484.178 216.864 482.542 217.771 481.468 219.107C474.534 227.153 470.712 237.507 470.721 248.226C470.747 255.974 472.758 263.58 476.553 270.288C480.349 276.996 485.796 282.572 492.355 286.463C501.43 291.838 512.116 293.637 522.4 291.523C523.155 291.381 523.875 291.09 524.519 290.665C525.164 290.239 525.72 289.688 526.156 289.043C526.592 288.398 526.899 287.672 527.061 286.906C527.222 286.139 527.234 285.348 527.096 284.577C526.958 283.806 526.672 283.07 526.256 282.412C525.84 281.753 525.3 281.185 524.669 280.74C524.038 280.294 523.327 279.98 522.577 279.815C521.826 279.651 521.052 279.638 520.297 279.78C512.744 281.385 504.876 280.094 498.196 276.152C493.405 273.304 489.43 269.222 486.666 264.313C483.903 259.404 482.449 253.841 482.449 248.178C482.449 240.016 485.439 232.521 490.392 226.841C491.141 225.979 491.63 224.914 491.799 223.775C491.969 222.636 491.812 221.471 491.348 220.421C490.883 219.371 490.131 218.481 489.182 217.858C488.233 217.235 487.128 216.907 486 216.911L486 216.864ZM261.667 216.911C260.539 216.907 259.434 217.235 258.485 217.858C257.536 218.481 256.784 219.371 256.32 220.421C255.855 221.471 255.698 222.636 255.868 223.775C256.037 224.914 256.526 225.979 257.275 226.841C262.401 232.732 265.228 240.343 265.218 248.226C265.218 259.683 259.144 270.423 249.472 276.152C242.797 280.11 234.929 281.418 227.37 279.827C226.615 279.686 225.841 279.698 225.091 279.863C224.341 280.028 223.629 280.342 222.998 280.787C222.367 281.233 221.828 281.801 221.411 282.46C220.995 283.118 220.709 283.854 220.571 284.625C220.433 285.396 220.445 286.187 220.607 286.953C220.768 287.72 221.075 288.446 221.511 289.091C221.947 289.736 222.504 290.287 223.148 290.712C223.792 291.138 224.513 291.429 225.267 291.57C235.173 293.575 245.827 292.048 255.312 286.51C261.86 282.604 267.294 277.015 271.073 270.298C274.852 263.582 276.844 255.973 276.853 248.226C276.853 237.056 272.788 226.888 266.106 219.107C265.558 218.42 264.866 217.867 264.082 217.487C263.298 217.107 262.441 216.911 261.574 216.911L261.667 216.911ZM326.71 223.117C326.056 223.117 325.449 223.165 324.841 223.26C324.06 223.303 323.296 223.506 322.593 223.856C321.89 224.206 321.263 224.697 320.75 225.3C320.236 225.902 319.846 226.604 319.603 227.363C319.36 228.123 319.269 228.924 319.334 229.72C319.4 230.516 319.622 231.291 319.986 231.998C320.35 232.705 320.849 233.33 321.454 233.836C322.06 234.342 322.758 234.719 323.508 234.944C324.259 235.169 325.045 235.238 325.822 235.147C328.281 234.916 330.752 235.411 332.943 236.573C335.134 237.735 336.952 239.515 338.182 241.702C339.412 243.888 340.002 246.389 339.882 248.908C339.762 251.427 338.936 253.858 337.504 255.912C337.068 256.557 336.761 257.284 336.601 258.051C336.44 258.818 336.429 259.61 336.568 260.381C336.707 261.152 336.993 261.888 337.41 262.546C337.827 263.205 338.367 263.773 338.999 264.218C339.631 264.663 340.343 264.976 341.093 265.14C341.844 265.304 342.619 265.316 343.374 265.174C344.129 265.032 344.849 264.74 345.494 264.314C346.138 263.887 346.694 263.336 347.13 262.69C350.074 258.467 351.658 253.411 351.662 248.226C351.662 239.3 346.943 230.946 339.373 226.506C335.515 224.227 331.119 223.072 326.663 223.165L326.71 223.117ZM47.2403 223.165C42.8947 223.069 38.5025 224.167 34.5307 226.506C30.7925 228.706 27.6854 231.87 25.5205 235.681C23.3555 239.493 22.2088 243.819 22.195 248.226C22.1892 253.428 23.7738 258.501 26.7274 262.738C27.1662 263.384 27.7251 263.935 28.3723 264.36C29.0195 264.785 29.7423 265.075 30.4995 265.215C31.2566 265.354 32.0333 265.34 32.7851 265.173C33.5369 265.006 34.2491 264.69 34.8812 264.241C35.5132 263.793 36.0526 263.222 36.4686 262.561C36.8847 261.9 37.1691 261.161 37.3058 260.388C37.4425 259.614 37.4287 258.821 37.2652 258.053C37.1017 257.285 36.7918 256.557 36.353 255.912C34.9206 253.858 34.0953 251.427 33.9751 248.908C33.8549 246.389 34.4448 243.888 35.6748 241.702C36.9049 239.515 38.7233 237.735 40.9142 236.573C43.1051 235.411 45.5764 234.916 48.0346 235.147C48.8051 235.228 49.5838 235.153 50.3255 234.924C51.0671 234.696 51.7568 234.319 52.3545 233.815C52.9522 233.312 53.4458 232.692 53.8068 231.992C54.1677 231.292 54.3887 230.525 54.4569 229.737C54.525 228.948 54.439 228.154 54.2039 227.4C53.9687 226.646 53.5891 225.947 53.0871 225.345C52.5851 224.742 51.9707 224.247 51.2798 223.889C50.5889 223.532 49.8352 223.318 49.0626 223.26C48.4406 223.21 47.8173 223.178 47.1935 223.165L47.2403 223.165ZM498.85 231.089C496.841 231.089 495.112 232.091 493.99 233.714C491.053 237.957 489.485 243.03 489.505 248.226C489.513 252.623 490.648 256.941 492.796 260.751C494.943 264.561 498.029 267.731 501.747 269.946C506.155 272.557 511.253 273.692 516.325 273.192C517.092 273.123 517.839 272.9 518.521 272.537C519.204 272.173 519.81 271.676 520.305 271.073C520.8 270.47 521.173 269.774 521.404 269.023C521.635 268.273 521.72 267.483 521.652 266.7C521.585 265.916 521.367 265.154 521.011 264.456C520.655 263.759 520.168 263.14 519.578 262.634C518.988 262.129 518.306 261.747 517.572 261.511C516.837 261.275 516.064 261.189 515.297 261.258C512.847 261.481 510.385 260.983 508.202 259.823C506.02 258.663 504.207 256.889 502.979 254.711C501.751 252.533 501.159 250.042 501.271 247.531C501.384 245.02 502.198 242.595 503.616 240.541C504.245 239.648 504.62 238.594 504.699 237.497C504.779 236.4 504.56 235.301 504.067 234.323C503.574 233.345 502.825 232.525 501.905 231.955C500.984 231.384 499.927 231.084 498.85 231.089V231.089ZM248.864 231.089C247.787 231.084 246.73 231.384 245.809 231.955C244.889 232.525 244.14 233.345 243.647 234.323C243.154 235.301 242.935 236.4 243.015 237.497C243.094 238.594 243.469 239.648 244.098 240.541C245.531 242.595 246.356 245.025 246.476 247.544C246.596 250.063 246.006 252.564 244.776 254.751C243.546 256.937 241.728 258.717 239.537 259.879C237.346 261.041 234.875 261.536 232.417 261.306C231.649 261.237 230.877 261.323 230.142 261.559C229.408 261.795 228.726 262.177 228.136 262.682C227.546 263.187 227.059 263.807 226.703 264.504C226.347 265.202 226.129 265.964 226.062 266.748C225.994 267.531 226.078 268.321 226.31 269.071C226.541 269.821 226.914 270.518 227.409 271.121C227.904 271.724 228.51 272.221 229.192 272.585C229.875 272.948 230.622 273.171 231.389 273.24C236.295 273.717 241.388 272.667 245.967 269.898C249.672 267.685 252.747 264.521 254.886 260.719C257.026 256.918 258.155 252.611 258.163 248.226C258.163 242.832 256.481 237.82 253.63 233.714C253.098 232.91 252.381 232.25 251.542 231.792C250.704 231.335 249.768 231.093 248.817 231.089L248.864 231.089ZM46.7263 242.259C45.1772 242.259 43.6916 242.888 42.5962 244.007C41.5009 245.126 40.8855 246.644 40.8855 248.226C40.8855 249.809 41.5009 251.326 42.5962 252.445C43.6916 253.564 45.1772 254.193 46.7263 254.193C48.2754 254.193 49.761 253.564 50.8563 252.445C51.9517 251.326 52.5671 249.809 52.5671 248.226C52.5671 246.644 51.9517 245.126 50.8563 244.007C49.761 242.888 48.2754 242.259 46.7263 242.259V242.259ZM513.989 242.259C512.44 242.259 510.954 242.888 509.859 244.007C508.764 245.126 508.148 246.644 508.148 248.226C508.148 249.809 508.764 251.326 509.859 252.445C510.954 253.564 512.44 254.193 513.989 254.193C515.538 254.193 517.024 253.564 518.119 252.445C519.214 251.326 519.83 249.809 519.83 248.226C519.83 246.644 519.214 245.126 518.119 244.007C517.024 242.888 515.538 242.259 513.989 242.259V242.259ZM234.052 242.259C232.503 242.145 230.973 242.665 229.799 243.703C228.624 244.742 227.902 246.214 227.791 247.797C227.679 249.379 228.187 250.942 229.204 252.142C230.22 253.341 231.662 254.079 233.211 254.193C233.978 254.25 234.748 254.151 235.478 253.903C236.208 253.656 236.883 253.263 237.464 252.749C238.046 252.235 238.522 251.609 238.867 250.907C239.211 250.204 239.417 249.439 239.472 248.656C239.527 247.872 239.431 247.085 239.189 246.34C238.946 245.594 238.562 244.905 238.059 244.311C237.555 243.717 236.943 243.23 236.255 242.878C235.568 242.526 234.819 242.316 234.052 242.259ZM326.663 242.259C325.896 242.316 325.148 242.526 324.46 242.878C323.773 243.23 323.16 243.717 322.657 244.311C322.153 244.905 321.769 245.594 321.527 246.34C321.284 247.085 321.188 247.872 321.243 248.656C321.298 249.439 321.504 250.204 321.849 250.907C322.193 251.609 322.67 252.235 323.251 252.749C323.833 253.263 324.508 253.656 325.237 253.903C325.967 254.151 326.737 254.25 327.504 254.193C329.054 254.079 330.495 253.341 331.511 252.142C332.528 250.942 333.036 249.379 332.925 247.797C332.813 246.214 332.091 244.742 330.917 243.703C329.742 242.665 328.213 242.145 326.663 242.259ZM93.4993 248.608C73.7214 248.568 54.6211 255.967 39.8414 269.393C25.0616 282.819 15.6365 301.334 13.3637 321.405C13.1782 322.523 13.3082 323.672 13.7386 324.717C14.1689 325.762 14.8818 326.66 15.7936 327.306C16.7055 327.952 17.7787 328.319 18.8876 328.365C19.9965 328.41 21.0951 328.132 22.0548 327.563C22.8448 327.089 23.5145 326.431 24.0097 325.643C24.5048 324.855 24.8116 323.959 24.9051 323.028C26.1151 312.072 29.8283 301.561 35.7451 292.34C41.662 283.12 49.6169 275.449 58.9686 269.946C69.4536 263.789 81.3357 260.55 93.4292 260.55C105.523 260.55 117.405 263.789 127.89 269.946C137.239 275.459 145.188 283.14 151.097 292.369C157.006 301.598 160.709 312.116 161.907 323.076C161.967 323.89 162.19 324.683 162.562 325.405C162.934 326.128 163.448 326.764 164.07 327.276C164.693 327.787 165.412 328.163 166.183 328.379C166.953 328.596 167.759 328.648 168.55 328.534C169.341 328.419 170.101 328.14 170.783 327.714C171.464 327.287 172.052 326.722 172.511 326.054C172.971 325.386 173.291 324.628 173.452 323.829C173.613 323.029 173.611 322.204 173.448 321.405C171.178 301.358 161.773 282.864 147.023 269.441C132.272 256.018 113.206 248.603 93.4526 248.608L93.4993 248.608ZM3.87904e-09 267.082L4.20766e-09 289.709C1.46881 291.448 3.02863 293.105 4.67263 294.673C5.48685 295.517 6.52838 296.093 7.66457 296.33C8.80076 296.567 9.98019 296.452 11.0526 296.002C12.125 295.551 13.0419 294.785 13.6865 293.8C14.3311 292.815 14.6742 291.657 14.6721 290.472C14.6721 288.706 13.9244 287.131 12.803 286.081C7.1831 280.819 2.80548 274.323 3.87903e-09 267.082H3.87904e-09ZM93.4526 267.702C79.4131 267.676 65.7836 272.536 54.8098 281.482C43.836 290.429 36.1726 302.927 33.0822 316.918C32.7104 318.456 32.952 320.082 33.7538 321.439C34.5556 322.795 35.852 323.77 37.3577 324.15C38.8634 324.53 40.4551 324.283 41.7826 323.464C43.1102 322.645 44.0649 321.32 44.4367 319.782C45.9406 312.835 48.8446 306.285 52.9637 300.548C57.0827 294.812 62.3264 290.014 68.3605 286.463C76.0012 281.973 84.6614 279.61 93.4759 279.61C102.29 279.61 110.951 281.973 118.591 286.463C124.622 290.025 129.86 294.831 133.971 300.576C138.082 306.321 140.976 312.879 142.468 319.83C142.729 320.998 143.327 322.06 144.186 322.876C145.046 323.692 146.125 324.225 147.285 324.405C148.445 324.585 149.631 324.405 150.688 323.886C151.746 323.368 152.627 322.537 153.215 321.501C154.057 320.069 154.197 318.446 153.823 316.966C150.742 302.966 143.082 290.457 132.108 281.501C121.133 272.546 107.498 267.678 93.4526 267.702V267.702ZM93.4526 286.797C84.4197 286.772 75.6078 289.648 68.2626 295.019C60.9174 300.39 55.4104 307.984 52.5203 316.727C51.9998 318.221 52.0816 319.865 52.7476 321.297C53.4135 322.73 54.6092 323.833 56.0715 324.365C57.5339 324.896 59.1431 324.813 60.5451 324.133C61.9472 323.452 63.0273 322.231 63.5477 320.737C65.9814 313.259 71.0201 306.957 77.7058 303.027C82.5036 300.208 87.9413 298.725 93.4759 298.725C99.0105 298.725 104.448 300.208 109.246 303.027C115.914 306.965 120.935 313.267 123.357 320.737C123.712 321.83 124.369 322.794 125.248 323.515C126.127 324.235 127.191 324.68 128.313 324.796C129.434 324.912 130.564 324.694 131.567 324.169C132.57 323.643 133.402 322.833 133.964 321.835C134.899 320.212 134.992 318.35 134.385 316.727C131.495 307.984 125.988 300.39 118.643 295.019C111.297 289.648 102.485 286.772 93.4526 286.797V286.797ZM4.35741e-09 300.019L4.57788e-09 315.199C1.31343 315.771 2.78642 315.832 4.14064 315.37C5.49486 314.908 6.63649 313.955 7.34981 312.691C8.06313 311.428 8.29872 309.941 8.01207 308.512C7.72542 307.083 6.93638 305.811 5.79406 304.936C3.77517 303.391 1.8409 301.734 4.3567e-09 299.972L4.35741e-09 300.019ZM93.4526 305.891C88.7589 305.892 84.164 307.269 80.2134 309.858C76.2627 312.447 73.1221 316.14 71.1641 320.498C70.788 321.213 70.5585 321.998 70.4895 322.806C70.4205 323.614 70.5135 324.428 70.7628 325.198C71.0121 325.968 71.4125 326.678 71.9395 327.285C72.4665 327.892 73.1091 328.382 73.8279 328.727C74.5468 329.071 75.3268 329.262 76.1204 329.288C76.914 329.314 77.7045 329.175 78.4435 328.878C79.1826 328.582 79.8546 328.134 80.4187 327.564C80.9828 326.993 81.427 326.31 81.7243 325.558C82.752 323.262 84.4037 321.316 86.483 319.952C88.5622 318.588 90.9814 317.862 93.4526 317.862C95.9237 317.862 98.3429 318.588 100.422 319.952C102.501 321.316 104.153 323.262 105.181 325.558C105.478 326.31 105.922 326.993 106.486 327.564C107.05 328.134 107.723 328.582 108.462 328.878C109.201 329.175 109.991 329.314 110.785 329.288C111.578 329.262 112.358 329.071 113.077 328.727C113.796 328.382 114.439 327.892 114.966 327.285C115.493 326.678 115.893 325.968 116.142 325.198C116.392 324.428 116.485 323.614 116.416 322.806C116.347 321.998 116.117 321.213 115.741 320.498C113.792 316.133 110.654 312.434 106.701 309.843C102.748 307.253 98.1488 305.881 93.4526 305.891V305.891ZM93.032 324.985C91.557 325.094 90.1772 325.77 89.1712 326.878C88.1652 327.985 87.6079 329.441 87.6118 330.952L99.2933 330.952C99.2954 330.131 99.1316 329.318 98.8121 328.565C98.4927 327.812 98.0244 327.134 97.4367 326.574C96.849 326.013 96.1545 325.583 95.3965 325.31C94.6386 325.037 93.8337 324.926 93.032 324.985ZM467.683 324.985C466.88 324.919 466.072 325.024 465.311 325.295C464.55 325.566 463.853 325.995 463.263 326.557C462.674 327.118 462.206 327.799 461.889 328.556C461.572 329.313 461.413 330.129 461.422 330.952L473.104 330.952C473.119 329.438 472.565 327.976 471.557 326.866C470.549 325.756 469.162 325.083 467.683 324.985V324.985Z" fill="white"/>
</g>
</svg>
