<svg width="1120" height="270" viewBox="0 0 1120 270" fill="none" xmlns="http://www.w3.org/2000/svg">
<g clip-path="url(#clip0_699_2104)">
<path d="M96.4103 68.8858C93.3846 70.6372 91.7253 73.8237 91.4325 78.4453C90.4565 93.8183 90.2613 104.643 90.8469 110.918C90.9188 111.528 90.8591 112.146 90.6718 112.732C90.4845 113.318 90.1736 113.859 89.7594 114.32C89.3453 114.781 88.837 115.152 88.2677 115.408C87.6984 115.664 87.0807 115.8 86.4548 115.807L17.8639 116.026C17.3493 116.022 16.8426 115.9 16.3827 115.67C15.9228 115.439 15.522 115.107 15.211 114.699C14.9 114.29 14.687 113.816 14.5886 113.312C14.4901 112.808 14.5087 112.289 14.643 111.794C24.5986 75.0156 44.6805 48.0642 74.8887 30.9399C105.097 13.8156 138.599 10.3615 175.396 20.5777C175.901 20.7085 176.369 20.9547 176.763 21.2967C177.156 21.6388 177.465 22.0674 177.663 22.5487C177.862 23.03 177.946 23.5508 177.908 24.0699C177.87 24.589 177.712 25.0923 177.446 25.5399L142.162 84.2102C141.84 84.7439 141.411 85.2055 140.902 85.5653C140.394 85.9251 139.817 86.1749 139.21 86.2987C138.603 86.4225 137.979 86.4175 137.377 86.284C136.776 86.1505 136.212 85.8915 135.72 85.5237C130.596 81.7777 121.177 76.4021 107.464 69.3967C103.267 67.2561 99.5824 67.0858 96.4103 68.8858Z" fill="white"/>
<path d="M261.282 136.67C261.623 171.065 248.447 201.738 221.752 228.689C221.39 229.05 220.949 229.323 220.465 229.489C219.98 229.654 219.464 229.707 218.956 229.644C218.448 229.58 217.961 229.402 217.532 229.123C217.103 228.844 216.744 228.471 216.482 228.032L182.442 169.143C182.139 168.605 181.949 168.011 181.885 167.399C181.821 166.787 181.884 166.169 182.07 165.586C182.256 165.003 182.56 164.466 182.965 164.011C183.369 163.555 183.864 163.191 184.419 162.94C190.129 160.313 199.352 154.743 212.09 146.23C215.945 143.7 217.873 140.611 217.873 136.962C217.824 133.508 215.847 130.516 211.943 127.986C199.011 119.765 189.665 114.389 183.907 111.859C183.346 111.616 182.844 111.256 182.432 110.804C182.02 110.351 181.708 109.816 181.515 109.232C181.322 108.648 181.252 108.029 181.311 107.413C181.37 106.797 181.556 106.199 181.857 105.657L214.725 46.1837C214.981 45.7399 215.335 45.3603 215.761 45.0741C216.187 44.7878 216.672 44.6023 217.181 44.5319C217.689 44.4615 218.207 44.508 218.695 44.6678C219.183 44.8276 219.628 45.0965 219.995 45.4539C247.227 71.8701 260.989 102.276 261.282 136.67Z" fill="white"/>
<path d="M96.4787 207.54C99.6508 209.291 103.287 209.097 107.386 206.956C121.002 199.853 130.347 194.429 135.422 190.683C135.909 190.312 136.47 190.049 137.068 189.91C137.666 189.771 138.289 189.76 138.895 189.876C139.502 189.993 140.08 190.236 140.591 190.588C141.102 190.941 141.536 191.396 141.864 191.924L177.587 250.01C177.854 250.453 178.015 250.951 178.058 251.466C178.1 251.981 178.022 252.499 177.831 252.979C177.64 253.459 177.34 253.889 176.955 254.235C176.57 254.58 176.11 254.833 175.611 254.972C139.009 265.48 105.58 262.343 75.3231 245.559C45.0661 228.726 24.7889 202.043 14.4918 165.507C14.344 165.008 14.3151 164.48 14.4072 163.967C14.4993 163.454 14.71 162.97 15.0225 162.552C15.335 162.134 15.7408 161.795 16.2077 161.561C16.6747 161.326 17.1899 161.203 17.7127 161.202L86.0839 160.91C86.7092 160.908 87.3281 161.035 87.9007 161.282C88.4732 161.53 88.9866 161.892 89.4075 162.346C89.8285 162.8 90.1476 163.336 90.3443 163.918C90.541 164.5 90.6108 165.116 90.5493 165.726C90.0125 171.953 90.2809 182.729 91.3545 198.053C91.6961 202.675 93.4042 205.837 96.4787 207.54Z" fill="white"/>
<path d="M291.529 143.285C291.529 130.596 294.275 119.311 299.765 109.429C305.255 99.4242 312.88 91.677 322.641 86.1868C332.523 80.5746 343.686 77.7685 356.131 77.7685C371.381 77.7685 384.436 81.7946 395.294 89.8469C406.153 97.8992 413.412 108.88 417.072 122.788H382.667C380.105 117.42 376.444 113.333 371.686 110.527C367.05 107.721 361.743 106.317 355.765 106.317C346.126 106.317 338.318 109.673 332.34 116.383C326.362 123.093 323.373 132.06 323.373 143.285C323.373 154.509 326.362 163.477 332.34 170.187C338.318 176.897 346.126 180.252 355.765 180.252C361.743 180.252 367.05 178.849 371.686 176.043C376.444 173.237 380.105 169.15 382.667 163.782H417.072C413.412 177.69 406.153 188.67 395.294 196.723C384.436 204.653 371.381 208.618 356.131 208.618C343.686 208.618 332.523 205.873 322.641 200.383C312.88 194.771 305.255 187.023 299.765 177.141C294.275 167.259 291.529 155.973 291.529 143.285ZM429.194 164.66C429.194 155.846 430.834 148.109 434.113 141.447C437.495 134.786 442.056 129.662 447.795 126.075C453.534 122.488 459.939 120.694 467.011 120.694C473.057 120.694 478.335 121.924 482.844 124.384C487.456 126.844 490.992 130.072 493.451 134.069V121.924H519.738V207.703H493.451V195.559C490.889 199.556 487.302 202.784 482.691 205.244C478.181 207.703 472.903 208.933 466.857 208.933C459.888 208.933 453.534 207.139 447.795 203.553C442.056 199.863 437.495 194.688 434.113 188.026C430.834 181.262 429.194 173.474 429.194 164.66ZM493.451 164.814C493.451 158.255 491.607 153.079 487.917 149.287C484.33 145.496 479.923 143.6 474.697 143.6C469.47 143.6 465.012 145.496 461.323 149.287C457.736 152.977 455.942 158.101 455.942 164.66C455.942 171.219 457.736 176.446 461.323 180.34C465.012 184.132 469.47 186.028 474.697 186.028C479.923 186.028 484.33 184.132 487.917 180.34C491.607 176.548 493.451 171.373 493.451 164.814ZM565.043 134.069C567.605 130.072 571.141 126.844 575.65 124.384C580.159 121.924 585.437 120.694 591.484 120.694C598.555 120.694 604.96 122.488 610.699 126.075C616.439 129.662 620.948 134.786 624.227 141.447C627.609 148.109 629.3 155.846 629.3 164.66C629.3 173.474 627.609 181.262 624.227 188.026C620.948 194.688 616.439 199.863 610.699 203.553C604.96 207.139 598.555 208.933 591.484 208.933C585.54 208.933 580.262 207.703 575.65 205.244C571.141 202.784 567.605 199.607 565.043 195.713V248.594H538.756V121.924H565.043V134.069ZM602.552 164.66C602.552 158.101 600.707 152.977 597.018 149.287C593.431 145.496 588.973 143.6 583.644 143.6C578.417 143.6 573.959 145.496 570.27 149.287C566.683 153.079 564.889 158.255 564.889 164.814C564.889 171.373 566.683 176.548 570.27 180.34C573.959 184.132 578.417 186.028 583.644 186.028C588.87 186.028 593.328 184.132 597.018 180.34C600.707 176.446 602.552 171.219 602.552 164.66ZM639.599 143.285C639.599 130.596 642.344 119.311 647.835 109.429C653.325 99.4242 660.95 91.677 670.71 86.1868C680.593 80.5746 691.756 77.7685 704.201 77.7685C719.451 77.7685 732.506 81.7946 743.364 89.8469C754.222 97.8992 761.482 108.88 765.142 122.788H730.737C728.175 117.42 724.514 113.333 719.756 110.527C715.12 107.721 709.813 106.317 703.835 106.317C694.196 106.317 686.388 109.673 680.41 116.383C674.432 123.093 671.442 132.06 671.442 143.285C671.442 154.509 674.432 163.477 680.41 170.187C686.388 176.897 694.196 180.252 703.835 180.252C709.813 180.252 715.12 178.849 719.756 176.043C724.514 173.237 728.175 169.15 730.737 163.782H765.142C761.482 177.69 754.222 188.67 743.364 196.723C732.506 204.653 719.451 208.618 704.201 208.618C691.756 208.618 680.593 205.873 670.71 200.383C660.95 194.771 653.325 187.023 647.835 177.141C642.344 167.259 639.599 155.973 639.599 143.285ZM821.537 208.933C813.133 208.933 805.549 207.139 798.786 203.553C792.124 199.966 786.846 194.841 782.952 188.18C779.16 181.519 777.264 173.73 777.264 164.814C777.264 156 779.211 148.263 783.106 141.601C787 134.837 792.329 129.662 799.093 126.075C805.857 122.488 813.441 120.694 821.844 120.694C830.248 120.694 837.832 122.488 844.596 126.075C851.36 129.662 856.689 134.837 860.583 141.601C864.478 148.263 866.425 156 866.425 164.814C866.425 173.627 864.426 181.416 860.429 188.18C856.535 194.841 851.155 199.966 844.288 203.553C837.524 207.139 829.941 208.933 821.537 208.933ZM821.537 186.182C826.559 186.182 830.812 184.337 834.296 180.647C837.883 176.958 839.676 171.68 839.676 164.814C839.676 157.947 837.934 152.669 834.45 148.98C831.068 145.291 826.866 143.446 821.844 143.446C816.72 143.446 812.467 145.291 809.085 148.98C805.703 152.567 804.012 157.845 804.012 164.814C804.012 171.68 805.652 176.958 808.931 180.647C812.313 184.337 816.515 186.182 821.537 186.182ZM932.637 121.002C942.681 121.002 950.674 124.281 956.618 130.84C962.665 137.297 965.688 146.213 965.688 157.589V207.703H939.555V161.124C939.555 155.385 938.069 150.927 935.097 147.75C932.125 144.573 928.128 142.985 923.106 142.985C918.085 142.985 914.088 144.573 911.116 147.75C908.144 150.927 906.658 155.385 906.658 161.124V207.703H880.371V121.924H906.658V133.3C909.322 129.508 912.909 126.536 917.418 124.384C921.928 122.129 927.001 121.002 932.637 121.002ZM1018.85 208.933C1011.37 208.933 1004.71 207.652 998.866 205.09C993.025 202.528 988.413 199.043 985.031 194.636C981.649 190.127 979.753 185.105 979.343 179.571H1005.32C1005.63 182.543 1007.01 184.952 1009.47 186.796C1011.93 188.641 1014.96 189.564 1018.54 189.564C1021.82 189.564 1024.33 188.949 1026.08 187.719C1027.92 186.387 1028.84 184.696 1028.84 182.646C1028.84 180.186 1027.56 178.393 1025 177.265C1022.44 176.036 1018.29 174.703 1012.55 173.269C1006.4 171.834 1001.27 170.348 997.175 168.811C993.076 167.171 989.54 164.66 986.568 161.278C983.596 157.794 982.11 153.131 982.11 147.289C982.11 142.37 983.443 137.912 986.107 133.915C988.874 129.816 992.871 126.587 998.098 124.23C1003.43 121.873 1009.73 120.694 1017.01 120.694C1027.77 120.694 1036.22 123.359 1042.37 128.688C1048.62 134.017 1052.21 141.089 1053.13 149.902H1028.84C1028.43 146.93 1027.1 144.573 1024.85 142.831C1022.69 141.089 1019.82 140.218 1016.24 140.218C1013.16 140.218 1010.81 140.833 1009.17 142.062C1007.53 143.19 1006.71 144.778 1006.71 146.828C1006.71 149.287 1007.99 151.132 1010.55 152.362C1013.21 153.592 1017.31 154.822 1022.85 156.051C1029.2 157.691 1034.38 159.331 1038.37 160.971C1042.37 162.508 1045.86 165.07 1048.83 168.657C1051.9 172.141 1053.49 176.856 1053.59 182.8C1053.59 187.821 1052.16 192.331 1049.29 196.327C1046.52 200.222 1042.47 203.296 1037.14 205.551C1031.92 207.806 1025.82 208.933 1018.85 208.933ZM1081.97 208.933C1077.36 208.933 1073.57 207.601 1070.6 204.936C1067.73 202.169 1066.29 198.787 1066.29 194.79C1066.29 190.691 1067.73 187.258 1070.6 184.491C1073.57 181.724 1077.36 180.34 1081.97 180.34C1086.48 180.34 1090.17 181.724 1093.04 184.491C1096.01 187.258 1097.5 190.691 1097.5 194.79C1097.5 198.787 1096.01 202.169 1093.04 204.936C1090.17 207.601 1086.48 208.933 1081.97 208.933Z" fill="white"/>
</g>
<defs>
<clipPath id="clip0_699_2104">
<rect width="1120" height="270" fill="white"/>
</clipPath>
</defs>
</svg>
