<svg width="1120" height="271" viewBox="0 0 1120 271" fill="none" xmlns="http://www.w3.org/2000/svg">
<g clip-path="url(#clip0_699_2104)">
<path d="M96.4103 69.1028C93.3846 70.8596 91.7253 74.0561 91.4325 78.6923C90.4565 94.1137 90.2613 104.972 90.8469 111.267C90.9188 111.879 90.8591 112.499 90.6718 113.087C90.4845 113.675 90.1736 114.218 89.7594 114.68C89.3453 115.142 88.837 115.514 88.2677 115.771C87.6984 116.028 87.0807 116.165 86.4548 116.172L17.8639 116.392C17.3493 116.387 16.8426 116.265 16.3827 116.034C15.9228 115.803 15.522 115.47 15.211 115.06C14.9 114.65 14.687 114.174 14.5886 113.669C14.4901 113.164 14.5087 112.643 14.643 112.146C24.5986 75.2518 44.6805 48.2156 74.8887 31.0374C105.097 13.8592 138.599 10.3943 175.396 20.6426C175.901 20.7738 176.369 21.0208 176.763 21.3639C177.156 21.707 177.465 22.137 177.663 22.6198C177.862 23.1026 177.946 23.625 177.908 24.1458C177.87 24.6666 177.712 25.1714 177.446 25.6204L142.162 84.4753C141.84 85.0107 141.411 85.4738 140.902 85.8347C140.394 86.1956 139.817 86.4462 139.21 86.5704C138.603 86.6946 137.979 86.6896 137.377 86.5557C136.776 86.4217 136.212 86.1619 135.72 85.793C130.596 82.0352 121.177 76.6426 107.464 69.6152C103.267 67.4679 99.5824 67.2971 96.4103 69.1028Z" fill="#262626"/>
<path d="M261.282 137.101C261.623 171.604 248.447 202.373 221.752 229.409C221.39 229.771 220.949 230.045 220.465 230.211C219.98 230.377 219.464 230.431 218.956 230.367C218.448 230.304 217.961 230.125 217.532 229.845C217.103 229.565 216.744 229.19 216.482 228.751L182.442 169.676C182.139 169.136 181.949 168.541 181.885 167.926C181.821 167.312 181.884 166.693 182.07 166.108C182.256 165.523 182.56 164.985 182.965 164.528C183.369 164.071 183.864 163.705 184.419 163.454C190.129 160.818 199.352 155.231 212.09 146.69C215.945 144.153 217.873 141.054 217.873 137.394C217.824 133.929 215.847 130.927 211.943 128.39C199.011 120.142 189.665 114.75 183.907 112.212C183.346 111.967 182.844 111.607 182.432 111.153C182.02 110.699 181.708 110.162 181.515 109.576C181.322 108.991 181.252 108.369 181.311 107.751C181.37 107.134 181.556 106.534 181.857 105.99L214.725 46.3296C214.981 45.8844 215.335 45.5037 215.761 45.2165C216.187 44.9293 216.672 44.7433 217.181 44.6726C217.689 44.602 218.207 44.6486 218.695 44.8089C219.183 44.9692 219.628 45.239 219.995 45.5976C247.227 72.0969 260.989 102.598 261.282 137.101Z" fill="#262626"/>
<path d="M96.4787 208.194C99.6508 209.951 103.287 209.756 107.386 207.609C121.002 200.484 130.347 195.042 135.422 191.285C135.909 190.913 136.47 190.648 137.068 190.509C137.666 190.37 138.289 190.358 138.895 190.475C139.502 190.593 140.08 190.836 140.591 191.19C141.102 191.543 141.536 192 141.864 192.529L177.587 250.798C177.854 251.243 178.015 251.742 178.058 252.259C178.1 252.775 178.022 253.295 177.831 253.777C177.64 254.258 177.34 254.689 176.955 255.036C176.57 255.383 176.11 255.636 175.611 255.776C139.009 266.317 105.58 263.17 75.3231 246.333C45.0661 229.448 24.7889 202.68 14.4918 166.03C14.344 165.528 14.3151 164.999 14.4072 164.485C14.4993 163.97 14.71 163.484 15.0225 163.065C15.335 162.646 15.7408 162.305 16.2077 162.07C16.6747 161.835 17.1899 161.712 17.7127 161.711L86.0839 161.418C86.7092 161.416 87.3281 161.543 87.9007 161.791C88.4732 162.039 88.9866 162.403 89.4075 162.858C89.8285 163.314 90.1476 163.851 90.3443 164.435C90.541 165.019 90.6108 165.637 90.5493 166.249C90.0125 172.496 90.2809 183.306 91.3545 198.678C91.6961 203.314 93.4042 206.486 96.4787 208.194Z" fill="#262626"/>
<path d="M291.529 143.261C291.529 130.573 294.275 119.288 299.765 109.405C305.255 99.4008 312.88 91.6535 322.641 86.1633C332.523 80.5511 343.686 77.745 356.131 77.745C371.381 77.745 384.436 81.7712 395.294 89.8235C406.153 97.8758 413.412 108.856 417.072 122.765H382.667C380.105 117.396 376.444 113.309 371.686 110.503C367.05 107.697 361.743 106.294 355.765 106.294C346.126 106.294 338.318 109.649 332.34 116.359C326.362 123.07 323.373 132.037 323.373 143.261C323.373 154.486 326.362 163.453 332.34 170.163C338.318 176.874 346.126 180.229 355.765 180.229C361.743 180.229 367.05 178.826 371.686 176.02C376.444 173.213 380.105 169.126 382.667 163.758H417.072C413.412 177.667 406.153 188.647 395.294 196.699C384.436 204.63 371.381 208.595 356.131 208.595C343.686 208.595 332.523 205.85 322.641 200.359C312.88 194.747 305.255 187 299.765 177.118C294.275 167.235 291.529 155.95 291.529 143.261ZM429.194 164.637C429.194 155.823 430.834 148.085 434.113 141.424C437.495 134.763 442.056 129.638 447.795 126.051C453.534 122.465 459.939 120.671 467.011 120.671C473.057 120.671 478.335 121.901 482.844 124.36C487.456 126.82 490.992 130.048 493.451 134.045V121.901H519.738V207.68H493.451V195.535C490.889 199.532 487.302 202.76 482.691 205.22C478.181 207.68 472.903 208.909 466.857 208.909C459.888 208.909 453.534 207.116 447.795 203.529C442.056 199.84 437.495 194.664 434.113 188.003C430.834 181.239 429.194 173.45 429.194 164.637ZM493.451 164.79C493.451 158.231 491.607 153.056 487.917 149.264C484.33 145.472 479.923 143.576 474.697 143.576C469.47 143.576 465.012 145.472 461.323 149.264C457.736 152.953 455.942 158.078 455.942 164.637C455.942 171.196 457.736 176.422 461.323 180.317C465.012 184.108 469.47 186.004 474.697 186.004C479.923 186.004 484.33 184.108 487.917 180.317C491.607 176.525 493.451 171.349 493.451 164.79ZM565.043 134.045C567.605 130.048 571.141 126.82 575.65 124.36C580.159 121.901 585.437 120.671 591.484 120.671C598.555 120.671 604.96 122.465 610.699 126.051C616.439 129.638 620.948 134.763 624.227 141.424C627.609 148.085 629.3 155.823 629.3 164.637C629.3 173.45 627.609 181.239 624.227 188.003C620.948 194.664 616.439 199.84 610.699 203.529C604.96 207.116 598.555 208.909 591.484 208.909C585.54 208.909 580.262 207.68 575.65 205.22C571.141 202.76 567.605 199.583 565.043 195.689V248.571H538.756V121.901H565.043V134.045ZM602.552 164.637C602.552 158.078 600.707 152.953 597.018 149.264C593.431 145.472 588.973 143.576 583.644 143.576C578.417 143.576 573.959 145.472 570.27 149.264C566.683 153.056 564.889 158.231 564.889 164.79C564.889 171.349 566.683 176.525 570.27 180.317C573.959 184.108 578.417 186.004 583.644 186.004C588.87 186.004 593.328 184.108 597.018 180.317C600.707 176.422 602.552 171.196 602.552 164.637ZM639.599 143.261C639.599 130.573 642.344 119.288 647.835 109.405C653.325 99.4008 660.95 91.6535 670.71 86.1633C680.593 80.5511 691.756 77.745 704.201 77.745C719.451 77.745 732.506 81.7712 743.364 89.8235C754.222 97.8758 761.482 108.856 765.142 122.765H730.737C728.175 117.396 724.514 113.309 719.756 110.503C715.12 107.697 709.813 106.294 703.835 106.294C694.196 106.294 686.388 109.649 680.41 116.359C674.432 123.07 671.442 132.037 671.442 143.261C671.442 154.486 674.432 163.453 680.41 170.163C686.388 176.874 694.196 180.229 703.835 180.229C709.813 180.229 715.12 178.826 719.756 176.02C724.514 173.213 728.175 169.126 730.737 163.758H765.142C761.482 177.667 754.222 188.647 743.364 196.699C732.506 204.63 719.451 208.595 704.201 208.595C691.756 208.595 680.593 205.85 670.71 200.359C660.95 194.747 653.325 187 647.835 177.118C642.344 167.235 639.599 155.95 639.599 143.261ZM821.537 208.909C813.133 208.909 805.549 207.116 798.786 203.529C792.124 199.942 786.846 194.818 782.952 188.157C779.16 181.495 777.264 173.706 777.264 164.79C777.264 155.977 779.211 148.239 783.106 141.578C787 134.814 792.329 129.638 799.093 126.051C805.857 122.465 813.441 120.671 821.844 120.671C830.248 120.671 837.832 122.465 844.596 126.051C851.36 129.638 856.689 134.814 860.583 141.578C864.478 148.239 866.425 155.977 866.425 164.79C866.425 173.604 864.426 181.393 860.429 188.157C856.535 194.818 851.155 199.942 844.288 203.529C837.524 207.116 829.941 208.909 821.537 208.909ZM821.537 186.158C826.559 186.158 830.812 184.313 834.296 180.624C837.883 176.935 839.676 171.657 839.676 164.79C839.676 157.924 837.934 152.646 834.45 148.957C831.068 145.267 826.866 143.422 821.844 143.422C816.72 143.422 812.467 145.267 809.085 148.957C805.703 152.543 804.012 157.821 804.012 164.79C804.012 171.657 805.652 176.935 808.931 180.624C812.313 184.313 816.515 186.158 821.537 186.158ZM932.637 120.979C942.681 120.979 950.674 124.258 956.618 130.817C962.665 137.273 965.688 146.189 965.688 157.565V207.68H939.555V161.101C939.555 155.362 938.069 150.904 935.097 147.727C932.125 144.55 928.128 142.961 923.106 142.961C918.085 142.961 914.088 144.55 911.116 147.727C908.144 150.904 906.658 155.362 906.658 161.101V207.68H880.371V121.901H906.658V133.277C909.322 129.485 912.909 126.513 917.418 124.36C921.928 122.106 927.001 120.979 932.637 120.979ZM1018.85 208.909C1011.37 208.909 1004.71 207.628 998.866 205.066C993.025 202.504 988.413 199.02 985.031 194.613C981.649 190.104 979.753 185.082 979.343 179.548H1005.32C1005.63 182.52 1007.01 184.928 1009.47 186.773C1011.93 188.618 1014.96 189.54 1018.54 189.54C1021.82 189.54 1024.33 188.925 1026.08 187.695C1027.92 186.363 1028.84 184.672 1028.84 182.622C1028.84 180.163 1027.56 178.369 1025 177.242C1022.44 176.012 1018.29 174.68 1012.55 173.245C1006.4 171.81 1001.27 170.324 997.175 168.787C993.076 167.147 989.54 164.637 986.568 161.255C983.596 157.77 982.11 153.107 982.11 147.266C982.11 142.346 983.443 137.888 986.107 133.891C988.874 129.792 992.871 126.564 998.098 124.207C1003.43 121.85 1009.73 120.671 1017.01 120.671C1027.77 120.671 1036.22 123.336 1042.37 128.665C1048.62 133.994 1052.21 141.065 1053.13 149.879H1028.84C1028.43 146.907 1027.1 144.55 1024.85 142.808C1022.69 141.065 1019.82 140.194 1016.24 140.194C1013.16 140.194 1010.81 140.809 1009.17 142.039C1007.53 143.166 1006.71 144.755 1006.71 146.804C1006.71 149.264 1007.99 151.109 1010.55 152.339C1013.21 153.568 1017.31 154.798 1022.85 156.028C1029.2 157.668 1034.38 159.307 1038.37 160.947C1042.37 162.484 1045.86 165.046 1048.83 168.633C1051.9 172.118 1053.49 176.832 1053.59 182.776C1053.59 187.798 1052.16 192.307 1049.29 196.304C1046.52 200.198 1042.47 203.273 1037.14 205.528C1031.92 207.782 1025.82 208.909 1018.85 208.909ZM1081.97 208.909C1077.36 208.909 1073.57 207.577 1070.6 204.913C1067.73 202.146 1066.29 198.764 1066.29 194.767C1066.29 190.667 1067.73 187.234 1070.6 184.467C1073.57 181.7 1077.36 180.317 1081.97 180.317C1086.48 180.317 1090.17 181.7 1093.04 184.467C1096.01 187.234 1097.5 190.667 1097.5 194.767C1097.5 198.764 1096.01 202.146 1093.04 204.913C1090.17 207.577 1086.48 208.909 1081.97 208.909Z" fill="#262626"/>
</g>
<defs>
<clipPath id="clip0_699_2104">
<rect width="1120" height="270.85" fill="white"/>
</clipPath>
</defs>
</svg>
