<svg width="729" height="215" viewBox="0 0 729 215" fill="none" xmlns="http://www.w3.org/2000/svg">
<line x1="0.634895" y1="43.3012" x2="722.715" y2="18.0856" stroke="black" stroke-width="1.44768" stroke-dasharray="17.37 17.37"/>
<line x1="5.53236" y1="183.641" x2="727.613" y2="158.426" stroke="black" stroke-width="1.44768" stroke-dasharray="17.37 17.37"/>
<line x1="704.569" y1="177.337" x2="698.405" y2="0.826865" stroke="black" stroke-width="1.44768" stroke-dasharray="17.37 17.37"/>
<line x1="32.5686" y1="200.804" x2="26.4047" y2="24.2943" stroke="black" stroke-width="1.44768" stroke-dasharray="17.37 17.37"/>
<rect width="652.815" height="127.396" transform="translate(37.5156 50.3173) rotate(-2)" fill="white"/>
<path d="M123.449 160.214C114.842 160.515 107.098 158.831 100.217 155.162C93.4256 151.49 87.9933 146.038 83.9204 138.806C79.9362 131.571 77.7644 122.806 77.405 112.513C77.0548 102.486 78.5702 93.7259 81.9513 86.2337C85.3292 78.6527 90.3189 72.7035 96.9204 68.3861C103.522 64.0686 111.348 61.7519 120.399 61.4358C132.734 61.0051 142.424 63.7319 149.471 69.6161C156.603 75.4085 161.342 83.9055 163.688 95.1069L142.685 96.64C141.413 90.7318 138.944 86.198 135.28 83.0387C131.613 79.7906 126.851 78.2688 120.994 78.4734C115.936 78.65 111.679 80.1313 108.223 82.9174C104.766 85.7035 102.191 89.5693 100.498 94.5149C98.8051 99.4606 98.0733 105.217 98.3026 111.783C98.535 118.439 99.6682 124.174 101.702 128.989C103.822 133.713 106.701 137.3 110.34 139.749C113.98 142.198 118.24 143.338 123.12 143.167C129.509 142.944 134.372 140.998 137.709 137.327C141.132 133.565 143.175 128.474 143.839 122.054L165.031 122.113C164.058 129.877 161.847 136.529 158.398 142.069C154.949 147.609 150.303 151.947 144.459 155.083C138.705 158.216 131.702 159.926 123.449 160.214ZM194.836 157.188C187.471 157.446 181.378 155.97 176.557 152.762C171.822 149.463 169.347 144.752 169.133 138.629C168.913 132.328 170.697 127.424 174.483 123.916C178.356 120.315 184.124 117.582 191.788 115.715L214.658 110.385C214.496 105.771 213.311 102.347 211.1 100.115C208.976 97.79 205.961 96.6959 202.057 96.8322C198.241 96.9655 195.299 97.9567 193.232 99.8058C191.161 101.566 189.874 104.143 189.37 107.537L169.239 107.307C170.297 99.4517 173.596 93.4283 179.136 89.2368C184.761 84.9534 192.233 82.6491 201.55 82.3237C212.199 81.9518 220.273 84.202 225.774 89.0741C231.364 93.9431 234.329 101.258 234.67 111.019L235.521 135.378C235.592 137.419 235.95 138.783 236.596 139.471C237.328 140.068 238.359 140.343 239.69 140.296L241.687 140.226L242.166 153.936C241.551 154.135 240.536 154.349 239.123 154.576C237.798 154.8 236.47 154.935 235.139 154.981C232.299 155.08 229.62 154.685 227.101 153.796C224.672 152.904 222.662 151.33 221.073 149.076C219.481 146.732 218.609 143.387 218.457 139.039L220.234 140.309C219.458 143.535 217.958 146.386 215.735 148.862C213.6 151.336 210.737 153.301 207.145 154.759C203.642 156.214 199.539 157.024 194.836 157.188ZM199.149 143.311C202.432 143.196 205.294 142.475 207.736 141.145C210.174 139.728 212.059 137.752 213.392 135.217C214.725 132.683 215.333 129.73 215.215 126.358L215.094 122.897L198.976 126.925C195.804 127.658 193.4 128.808 191.767 130.375C190.219 131.851 189.486 133.742 189.566 136.049C189.65 138.445 190.514 140.281 192.158 141.556C193.801 142.832 196.132 143.416 199.149 143.311ZM248.136 173.718L244.948 82.4074L264.115 81.7381L265.04 96.7651L263.419 96.1554C265.014 90.9466 267.76 86.8971 271.657 84.0068C275.554 81.1165 280.165 79.5784 285.489 79.3925C292.145 79.1601 297.748 80.608 302.3 83.7364C306.851 86.8647 310.335 91.2297 312.752 96.8315C315.254 102.341 316.628 108.601 316.873 115.612C317.114 122.533 316.181 128.874 314.072 134.634C312.052 140.39 308.836 144.989 304.425 148.43C300.103 151.869 294.615 153.704 287.959 153.936C284.498 154.057 281.238 153.549 278.177 152.412C275.114 151.187 272.433 149.459 270.134 147.229C267.923 144.996 266.274 142.3 265.187 139.139L266.88 138.014L268.102 173.021L248.136 173.718ZM281.967 138.82C286.67 138.656 290.285 136.575 292.811 132.577C295.425 128.577 296.613 123.16 296.374 116.327C296.136 109.495 294.573 104.174 291.686 100.366C288.887 96.5543 285.137 94.7306 280.433 94.8949C277.328 95.0033 274.651 95.9408 272.402 97.7074C270.24 99.3822 268.595 101.883 267.467 105.21C266.428 108.533 265.992 112.591 266.159 117.383C266.327 122.174 267.045 126.192 268.313 129.435C269.67 132.675 271.487 135.099 273.764 136.707C276.127 138.224 278.862 138.928 281.967 138.82ZM367.796 151.682C359.188 151.982 351.444 150.298 344.564 146.629C337.772 142.957 332.34 137.505 328.267 130.273C324.283 123.038 322.111 114.274 321.752 103.98C321.402 93.9529 322.917 85.1931 326.298 77.7009C329.676 70.1199 334.666 64.1707 341.267 59.8533C347.869 55.5359 355.695 53.2191 364.746 52.903C377.081 52.4723 386.771 55.1991 393.818 61.0833C400.95 66.8758 405.689 75.3727 408.035 86.5742L387.032 88.1072C385.76 82.199 383.291 77.6652 379.627 74.5059C375.96 71.2578 371.198 69.7361 365.341 69.9406C360.283 70.1172 356.026 71.5986 352.569 74.3846C349.113 77.1707 346.538 81.0365 344.845 85.9822C343.152 90.9278 342.42 96.6839 342.649 103.25C342.882 109.906 344.015 115.641 346.049 120.457C348.168 125.18 351.048 128.767 354.687 131.216C358.327 133.666 362.587 134.805 367.467 134.635C373.856 134.412 378.719 132.465 382.056 128.794C385.478 125.032 387.522 119.941 388.186 113.521L409.378 113.581C408.405 121.344 406.194 127.996 402.745 133.536C399.296 139.076 394.649 143.414 388.806 146.55C383.052 149.683 376.048 151.393 367.796 151.682ZM450.364 148.265C443.087 148.519 436.69 147.232 431.171 144.404C425.65 141.487 421.283 137.286 418.071 131.801C414.859 126.316 413.121 119.802 412.857 112.26C412.594 104.717 413.875 98.1423 416.7 92.5352C419.521 86.8394 423.585 82.3441 428.889 79.0492C434.194 75.7544 440.484 73.9799 447.761 73.7258C455.037 73.4717 461.436 74.8031 466.957 77.7199C472.479 80.6366 476.846 84.8376 480.058 90.3227C483.267 95.719 485.003 102.189 485.267 109.731C485.53 117.274 484.251 123.893 481.429 129.589C478.607 135.285 474.544 139.78 469.24 143.075C463.932 146.281 457.64 148.011 450.364 148.265ZM449.829 132.958C454.798 132.784 458.592 130.742 461.209 126.83C463.824 122.83 465.01 117.369 464.769 110.447C464.527 103.525 462.964 98.2049 460.08 94.4853C457.193 90.6769 453.264 88.8595 448.295 89.033C443.326 89.2065 439.534 91.2936 436.919 95.2941C434.302 99.2058 433.114 104.622 433.356 111.544C433.597 118.465 435.162 123.83 438.049 127.639C440.933 131.358 444.86 133.131 449.829 132.958ZM493.736 145.151L491.245 73.8066L509.214 73.1791L510.742 94.0488L508.19 93.4716C508.714 88.1226 509.985 83.8136 512.003 80.5447C514.11 77.2727 516.78 74.8694 520.014 73.335C523.248 71.8005 526.817 70.9651 530.721 70.8288C535.868 70.6491 540.255 71.6064 543.882 73.7009C547.597 75.7923 550.458 78.8464 552.464 82.8633C554.556 86.7883 555.698 91.5016 555.89 97.0033L557.494 142.925L537.528 143.622L536.157 104.356C536.023 100.54 535.6 97.3121 534.885 94.6716C534.171 92.0312 532.992 90.0734 531.349 88.7981C529.702 87.4341 527.459 86.8016 524.619 86.9008C520.448 87.0464 517.308 88.7109 515.198 91.8942C513.085 94.9887 512.129 99.4199 512.331 105.188L513.702 144.454L493.736 145.151ZM598.746 143.083C591.381 143.341 585.178 142.536 580.137 140.668C575.094 138.712 571.179 136.006 568.393 132.549C565.692 129.001 564.083 124.881 563.563 120.191L583.772 118.819C584.511 122.169 586.022 124.737 588.306 126.523C590.589 128.309 593.905 129.126 598.253 128.974C601.803 128.85 604.533 128.177 606.445 126.956C608.446 125.731 609.405 123.92 609.321 121.525C609.268 120.016 608.87 118.786 608.126 117.835C607.379 116.795 605.928 115.957 603.774 115.321C601.705 114.594 598.619 113.991 594.515 113.512C586.926 112.445 580.971 111.098 576.649 109.472C572.328 107.846 569.23 105.644 567.356 102.867C565.482 100.089 564.474 96.6591 564.332 92.5772C564.093 85.7445 566.519 80.1513 571.608 75.7979C576.784 71.3525 584.652 68.9455 595.211 68.5768C601.955 68.3412 607.627 69.2093 612.227 71.181C616.916 73.1495 620.568 75.9539 623.183 79.5941C625.883 83.1425 627.626 87.2573 628.411 91.9387L608.34 93.4392C607.993 91.1414 607.215 89.2139 606.006 87.657C604.882 86.0081 603.462 84.7695 601.745 83.941C600.025 83.0237 597.967 82.607 595.571 82.6906C592.021 82.8146 589.297 83.6649 587.397 85.2416C585.583 86.7265 584.718 88.6669 584.802 91.0628C584.864 92.8375 585.314 94.2877 586.153 95.4134C587.078 96.4473 588.529 97.2851 590.506 97.9268C592.483 98.5685 595.121 99.0539 598.419 99.3829C606.088 100.181 612.175 101.479 616.68 103.276C621.27 104.982 624.591 107.22 626.643 109.992C628.694 112.763 629.793 116.234 629.938 120.405C630.1 125.019 628.905 128.97 626.354 132.258C623.804 135.545 620.162 138.115 615.429 139.969C610.785 141.819 605.224 142.857 598.746 143.083ZM635.182 140.212L634.471 119.847L656.167 119.089L656.879 139.454L635.182 140.212Z" fill="url(#paint0_linear_1586_51)"/>
<g filter="url(#filter0_d_1586_51)">
<path d="M643.761 177.868L632.607 183.802L642.337 193.154L635.946 200.437L626.223 191.229L621.317 203.217L604.65 163.65L643.761 177.868Z" fill="white"/>
<path d="M643.761 177.868L632.607 183.802L642.337 193.154L635.946 200.437L626.223 191.229L621.317 203.217L604.65 163.65L643.761 177.868Z" stroke="#561FB0" stroke-width="1.39327"/>
</g>
<defs>
<filter id="filter0_d_1586_51" x="596.422" y="158.27" width="56.0138" height="56.5158" filterUnits="userSpaceOnUse" color-interpolation-filters="sRGB">
<feFlood flood-opacity="0" result="BackgroundImageFix"/>
<feColorMatrix in="SourceAlpha" type="matrix" values="0 0 0 0 0 0 0 0 0 0 0 0 0 0 0 0 0 0 127 0" result="hardAlpha"/>
<feOffset dy="2.78654"/>
<feGaussianBlur stdDeviation="3.48318"/>
<feColorMatrix type="matrix" values="0 0 0 0 0.267483 0 0 0 0 0.281291 0 0 0 0 0.645833 0 0 0 0.4 0"/>
<feBlend mode="normal" in2="BackgroundImageFix" result="effect1_dropShadow_1586_51"/>
<feBlend mode="normal" in="SourceGraphic" in2="effect1_dropShadow_1586_51" result="shape"/>
</filter>
<linearGradient id="paint0_linear_1586_51" x1="71.6261" y1="112.863" x2="660.267" y2="92.3072" gradientUnits="userSpaceOnUse">
<stop stop-color="#4E00EF"/>
<stop offset="0.5" stop-color="#AA4FFF"/>
<stop offset="1" stop-color="#4E00EF"/>
</linearGradient>
</defs>
</svg>
