<svg width="13" height="13" viewBox="0 0 13 13" fill="none" xmlns="http://www.w3.org/2000/svg">
<path d="M10.9746 0.613487H1.90862C1.19333 0.613487 0.61348 1.19334 0.61348 1.90862V10.9746C0.61348 11.6899 1.19333 12.2697 1.90862 12.2697H10.9746C11.6899 12.2697 12.2697 11.6899 12.2697 10.9746V1.90862C12.2697 1.19334 11.6899 0.613487 10.9746 0.613487Z" stroke="#1DA1F2" stroke-width="1.22697" stroke-linecap="round" stroke-linejoin="round"/>
<path d="M5.96649 8.0776C5.83457 8.24655 5.65171 8.3745 5.41792 8.46144C5.18413 8.54837 4.91862 8.59184 4.62137 8.59184C4.31578 8.59184 4.04525 8.52377 3.80979 8.38762C3.57433 8.25147 3.39231 8.05709 3.26373 7.80448C3.13681 7.55023 3.07085 7.25415 3.06584 6.91624V6.63574C3.06584 6.09443 3.19777 5.67204 3.46161 5.36858C3.72546 5.06348 4.09368 4.91093 4.56626 4.91093C4.97205 4.91093 5.29435 5.00935 5.53314 5.20619C5.77194 5.40303 5.91556 5.68681 5.96398 6.05752H5.34277C5.27264 5.62611 5.01798 5.41041 4.57879 5.41041C4.2949 5.41041 4.07865 5.51129 3.93002 5.71305C3.78307 5.91317 3.70709 6.20761 3.70208 6.59637V6.87195C3.70208 7.25907 3.78474 7.56007 3.95006 7.77496C4.11705 7.9882 4.34834 8.09482 4.64391 8.09482C4.96788 8.09482 5.19833 8.02265 5.33526 7.8783V7.17705H4.5838V6.70464H5.96649V8.0776Z" fill="#1DA1F2"/>
<path d="M7.33165 8.54263H6.70042V4.96014H7.33165V8.54263Z" fill="#1DA1F2"/>
<path d="M10.2123 7.0245H8.7444V8.54263H8.11066V4.96014H10.4277V5.46208H8.7444V6.52748H10.2123V7.0245Z" fill="#1DA1F2"/>
<path d="M5.96649 8.0776C5.83457 8.24655 5.65171 8.3745 5.41792 8.46144C5.18413 8.54837 4.91862 8.59184 4.62137 8.59184C4.31578 8.59184 4.04525 8.52377 3.80979 8.38762C3.57433 8.25147 3.39231 8.05709 3.26373 7.80448C3.13681 7.55023 3.07085 7.25415 3.06584 6.91624V6.63574C3.06584 6.09443 3.19777 5.67204 3.46161 5.36858C3.72546 5.06348 4.09368 4.91093 4.56626 4.91093C4.97205 4.91093 5.29435 5.00935 5.53314 5.20619C5.77194 5.40303 5.91556 5.68681 5.96398 6.05752H5.34277C5.27264 5.62611 5.01798 5.41041 4.57879 5.41041C4.2949 5.41041 4.07865 5.51129 3.93002 5.71305C3.78307 5.91317 3.70709 6.20761 3.70208 6.59637V6.87195C3.70208 7.25907 3.78474 7.56007 3.95006 7.77496C4.11705 7.9882 4.34834 8.09482 4.64391 8.09482C4.96788 8.09482 5.19833 8.02265 5.33526 7.8783V7.17705H4.5838V6.70464H5.96649V8.0776Z" stroke="#1DA1F2" stroke-width="0.122697"/>
<path d="M7.33165 8.54263H6.70042V4.96014H7.33165V8.54263Z" stroke="#1DA1F2" stroke-width="0.122697"/>
<path d="M10.2123 7.0245H8.7444V8.54263H8.11066V4.96014H10.4277V5.46208H8.7444V6.52748H10.2123V7.0245Z" stroke="#1DA1F2" stroke-width="0.122697"/>
</svg>
