<svg width="13" height="13" viewBox="0 0 13 13" fill="none" xmlns="http://www.w3.org/2000/svg">
<path d="M10.974 0.613487H1.90855C1.1933 0.613487 0.61348 1.19331 0.61348 1.90855V10.974C0.61348 11.6893 1.1933 12.2691 1.90855 12.2691H10.974C11.6893 12.2691 12.2691 11.6893 12.2691 10.974V1.90855C12.2691 1.19331 11.6893 0.613487 10.974 0.613487Z" stroke="#1DA1F2" stroke-width="1.22697" stroke-linecap="round" stroke-linejoin="round"/>
<path d="M4.17651 5.14783C4.71295 5.14783 5.14781 4.71296 5.14781 4.17653C5.14781 3.64009 4.71295 3.20523 4.17651 3.20523C3.64008 3.20523 3.20522 3.64009 3.20522 4.17653C3.20522 4.71296 3.64008 5.14783 4.17651 5.14783Z" stroke="#1DA1F2" stroke-width="1.22697" stroke-linecap="round" stroke-linejoin="round"/>
<path d="M12.2715 8.38421L9.03388 5.14654L1.91101 12.2694" stroke="#1DA1F2" stroke-width="1.22697" stroke-linecap="round" stroke-linejoin="round"/>
</svg>
